<?xml version="1.0" encoding="utf-8" standalone="no"?>
<!DOCTYPE svg PUBLIC "-//W3C//DTD SVG 1.1//EN"
  "http://www.w3.org/Graphics/SVG/1.1/DTD/svg11.dtd">
<svg height="310.86825pt" version="1.1" viewBox="0 0 414.46375 310.86825" width="414.46375pt" xmlns="http://www.w3.org/2000/svg" xmlns:xlink="http://www.w3.org/1999/xlink">
 <metadata>
  <rdf:RDF xmlns:cc="http://creativecommons.org/ns#" xmlns:dc="http://purl.org/dc/elements/1.1/" xmlns:rdf="http://www.w3.org/1999/02/22-rdf-syntax-ns#">
   <cc:Work>
    <dc:type rdf:resource="http://purl.org/dc/dcmitype/StillImage"/>
    <dc:date>2021-06-20T00:23:27.437835</dc:date>
    <dc:format>image/svg+xml</dc:format>
    <dc:creator>
     <cc:Agent>
      <dc:title>Matplotlib v3.4.2, https://matplotlib.org/</dc:title>
     </cc:Agent>
    </dc:creator>
   </cc:Work>
  </rdf:RDF>
 </metadata>
 <defs>
  <style type="text/css">*{stroke-linecap:butt;stroke-linejoin:round;}</style>
 </defs>
 <g id="figure_1">
  <g id="patch_1">
   <path d="M 0 310.86825 
L 414.46375 310.86825 
L 414.46375 0 
L 0 0 
z
" style="fill:#ffffff;"/>
  </g>
  <g id="axes_1">
   <g id="patch_2">
    <path d="M 50.14375 273.312 
L 407.26375 273.312 
L 407.26375 7.2 
L 50.14375 7.2 
z
" style="fill:#ffffff;"/>
   </g>
   <g id="patch_3">
    <path clip-path="url(#pbf56dbf3ab)" d="M 67.243634 273.312 
L 68.862559 273.312 
L 68.862559 271.479904 
L 67.243634 271.479904 
z
" style="fill:#1f77b4;"/>
   </g>
   <g id="patch_4">
    <path clip-path="url(#pbf56dbf3ab)" d="M 68.862559 273.312 
L 70.481484 273.312 
L 70.481484 269.647807 
L 68.862559 269.647807 
z
" style="fill:#1f77b4;"/>
   </g>
   <g id="patch_5">
    <path clip-path="url(#pbf56dbf3ab)" d="M 70.481484 273.312 
L 72.100409 273.312 
L 72.100409 271.479904 
L 70.481484 271.479904 
z
" style="fill:#1f77b4;"/>
   </g>
   <g id="patch_6">
    <path clip-path="url(#pbf56dbf3ab)" d="M 72.100409 273.312 
L 73.719334 273.312 
L 73.719334 264.762217 
L 72.100409 264.762217 
z
" style="fill:#1f77b4;"/>
   </g>
   <g id="patch_7">
    <path clip-path="url(#pbf56dbf3ab)" d="M 73.719334 273.312 
L 75.338259 273.312 
L 75.338259 267.815711 
L 73.719334 267.815711 
z
" style="fill:#1f77b4;"/>
   </g>
   <g id="patch_8">
    <path clip-path="url(#pbf56dbf3ab)" d="M 75.338259 273.312 
L 76.957184 273.312 
L 76.957184 263.540819 
L 75.338259 263.540819 
z
" style="fill:#1f77b4;"/>
   </g>
   <g id="patch_9">
    <path clip-path="url(#pbf56dbf3ab)" d="M 76.957184 273.312 
L 78.576109 273.312 
L 78.576109 262.93012 
L 76.957184 262.93012 
z
" style="fill:#1f77b4;"/>
   </g>
   <g id="patch_10">
    <path clip-path="url(#pbf56dbf3ab)" d="M 78.576109 273.312 
L 80.195034 273.312 
L 80.195034 267.815711 
L 78.576109 267.815711 
z
" style="fill:#1f77b4;"/>
   </g>
   <g id="patch_11">
    <path clip-path="url(#pbf56dbf3ab)" d="M 80.195034 273.312 
L 81.813959 273.312 
L 81.813959 257.433831 
L 80.195034 257.433831 
z
" style="fill:#1f77b4;"/>
   </g>
   <g id="patch_12">
    <path clip-path="url(#pbf56dbf3ab)" d="M 81.813959 273.312 
L 83.432884 273.312 
L 83.432884 261.708723 
L 81.813959 261.708723 
z
" style="fill:#1f77b4;"/>
   </g>
   <g id="patch_13">
    <path clip-path="url(#pbf56dbf3ab)" d="M 83.432884 273.312 
L 85.051809 273.312 
L 85.051809 259.876627 
L 83.432884 259.876627 
z
" style="fill:#1f77b4;"/>
   </g>
   <g id="patch_14">
    <path clip-path="url(#pbf56dbf3ab)" d="M 85.051809 273.312 
L 86.670734 273.312 
L 86.670734 260.487325 
L 85.051809 260.487325 
z
" style="fill:#1f77b4;"/>
   </g>
   <g id="patch_15">
    <path clip-path="url(#pbf56dbf3ab)" d="M 86.670734 273.312 
L 88.289659 273.312 
L 88.289659 257.433831 
L 86.670734 257.433831 
z
" style="fill:#1f77b4;"/>
   </g>
   <g id="patch_16">
    <path clip-path="url(#pbf56dbf3ab)" d="M 88.289659 273.312 
L 89.908584 273.312 
L 89.908584 263.540819 
L 88.289659 263.540819 
z
" style="fill:#1f77b4;"/>
   </g>
   <g id="patch_17">
    <path clip-path="url(#pbf56dbf3ab)" d="M 89.908584 273.312 
L 91.527509 273.312 
L 91.527509 250.105446 
L 89.908584 250.105446 
z
" style="fill:#1f77b4;"/>
   </g>
   <g id="patch_18">
    <path clip-path="url(#pbf56dbf3ab)" d="M 91.527509 273.312 
L 93.146434 273.312 
L 93.146434 256.823133 
L 91.527509 256.823133 
z
" style="fill:#1f77b4;"/>
   </g>
   <g id="patch_19">
    <path clip-path="url(#pbf56dbf3ab)" d="M 93.146434 273.312 
L 94.765359 273.312 
L 94.765359 251.326843 
L 93.146434 251.326843 
z
" style="fill:#1f77b4;"/>
   </g>
   <g id="patch_20">
    <path clip-path="url(#pbf56dbf3ab)" d="M 94.765359 273.312 
L 96.384284 273.312 
L 96.384284 259.876627 
L 94.765359 259.876627 
z
" style="fill:#1f77b4;"/>
   </g>
   <g id="patch_21">
    <path clip-path="url(#pbf56dbf3ab)" d="M 96.384284 273.312 
L 98.00321 273.312 
L 98.00321 243.998458 
L 96.384284 243.998458 
z
" style="fill:#1f77b4;"/>
   </g>
   <g id="patch_22">
    <path clip-path="url(#pbf56dbf3ab)" d="M 98.00321 273.312 
L 99.622135 273.312 
L 99.622135 251.937542 
L 98.00321 251.937542 
z
" style="fill:#1f77b4;"/>
   </g>
   <g id="patch_23">
    <path clip-path="url(#pbf56dbf3ab)" d="M 99.622135 273.312 
L 101.24106 273.312 
L 101.24106 246.441253 
L 99.622135 246.441253 
z
" style="fill:#1f77b4;"/>
   </g>
   <g id="patch_24">
    <path clip-path="url(#pbf56dbf3ab)" d="M 101.24106 273.312 
L 102.859985 273.312 
L 102.859985 247.051952 
L 101.24106 247.051952 
z
" style="fill:#1f77b4;"/>
   </g>
   <g id="patch_25">
    <path clip-path="url(#pbf56dbf3ab)" d="M 102.859985 273.312 
L 104.47891 273.312 
L 104.47891 248.273349 
L 102.859985 248.273349 
z
" style="fill:#1f77b4;"/>
   </g>
   <g id="patch_26">
    <path clip-path="url(#pbf56dbf3ab)" d="M 104.47891 273.312 
L 106.097835 273.312 
L 106.097835 246.441253 
L 104.47891 246.441253 
z
" style="fill:#1f77b4;"/>
   </g>
   <g id="patch_27">
    <path clip-path="url(#pbf56dbf3ab)" d="M 106.097835 273.312 
L 107.71676 273.312 
L 107.71676 243.998458 
L 106.097835 243.998458 
z
" style="fill:#1f77b4;"/>
   </g>
   <g id="patch_28">
    <path clip-path="url(#pbf56dbf3ab)" d="M 107.71676 273.312 
L 109.335685 273.312 
L 109.335685 237.89147 
L 107.71676 237.89147 
z
" style="fill:#1f77b4;"/>
   </g>
   <g id="patch_29">
    <path clip-path="url(#pbf56dbf3ab)" d="M 109.335685 273.312 
L 110.95461 273.312 
L 110.95461 239.723566 
L 109.335685 239.723566 
z
" style="fill:#1f77b4;"/>
   </g>
   <g id="patch_30">
    <path clip-path="url(#pbf56dbf3ab)" d="M 110.95461 273.312 
L 112.573535 273.312 
L 112.573535 238.502169 
L 110.95461 238.502169 
z
" style="fill:#1f77b4;"/>
   </g>
   <g id="patch_31">
    <path clip-path="url(#pbf56dbf3ab)" d="M 112.573535 273.312 
L 114.19246 273.312 
L 114.19246 237.280771 
L 112.573535 237.280771 
z
" style="fill:#1f77b4;"/>
   </g>
   <g id="patch_32">
    <path clip-path="url(#pbf56dbf3ab)" d="M 114.19246 273.312 
L 115.811385 273.312 
L 115.811385 233.00588 
L 114.19246 233.00588 
z
" style="fill:#1f77b4;"/>
   </g>
   <g id="patch_33">
    <path clip-path="url(#pbf56dbf3ab)" d="M 115.811385 273.312 
L 117.43031 273.312 
L 117.43031 230.563084 
L 115.811385 230.563084 
z
" style="fill:#1f77b4;"/>
   </g>
   <g id="patch_34">
    <path clip-path="url(#pbf56dbf3ab)" d="M 117.43031 273.312 
L 119.049235 273.312 
L 119.049235 234.837976 
L 117.43031 234.837976 
z
" style="fill:#1f77b4;"/>
   </g>
   <g id="patch_35">
    <path clip-path="url(#pbf56dbf3ab)" d="M 119.049235 273.312 
L 120.66816 273.312 
L 120.66816 236.059373 
L 119.049235 236.059373 
z
" style="fill:#1f77b4;"/>
   </g>
   <g id="patch_36">
    <path clip-path="url(#pbf56dbf3ab)" d="M 120.66816 273.312 
L 122.287085 273.312 
L 122.287085 229.952386 
L 120.66816 229.952386 
z
" style="fill:#1f77b4;"/>
   </g>
   <g id="patch_37">
    <path clip-path="url(#pbf56dbf3ab)" d="M 122.287085 273.312 
L 123.90601 273.312 
L 123.90601 240.944964 
L 122.287085 240.944964 
z
" style="fill:#1f77b4;"/>
   </g>
   <g id="patch_38">
    <path clip-path="url(#pbf56dbf3ab)" d="M 123.90601 273.312 
L 125.524935 273.312 
L 125.524935 226.288193 
L 123.90601 226.288193 
z
" style="fill:#1f77b4;"/>
   </g>
   <g id="patch_39">
    <path clip-path="url(#pbf56dbf3ab)" d="M 125.524935 273.312 
L 127.14386 273.312 
L 127.14386 220.181205 
L 125.524935 220.181205 
z
" style="fill:#1f77b4;"/>
   </g>
   <g id="patch_40">
    <path clip-path="url(#pbf56dbf3ab)" d="M 127.14386 273.312 
L 128.762785 273.312 
L 128.762785 231.173783 
L 127.14386 231.173783 
z
" style="fill:#1f77b4;"/>
   </g>
   <g id="patch_41">
    <path clip-path="url(#pbf56dbf3ab)" d="M 128.762785 273.312 
L 130.38171 273.312 
L 130.38171 215.906313 
L 128.762785 215.906313 
z
" style="fill:#1f77b4;"/>
   </g>
   <g id="patch_42">
    <path clip-path="url(#pbf56dbf3ab)" d="M 130.38171 273.312 
L 132.000635 273.312 
L 132.000635 215.906313 
L 130.38171 215.906313 
z
" style="fill:#1f77b4;"/>
   </g>
   <g id="patch_43">
    <path clip-path="url(#pbf56dbf3ab)" d="M 132.000635 273.312 
L 133.619561 273.312 
L 133.619561 227.50959 
L 132.000635 227.50959 
z
" style="fill:#1f77b4;"/>
   </g>
   <g id="patch_44">
    <path clip-path="url(#pbf56dbf3ab)" d="M 133.619561 273.312 
L 135.238486 273.312 
L 135.238486 223.234699 
L 133.619561 223.234699 
z
" style="fill:#1f77b4;"/>
   </g>
   <g id="patch_45">
    <path clip-path="url(#pbf56dbf3ab)" d="M 135.238486 273.312 
L 136.857411 273.312 
L 136.857411 221.402602 
L 135.238486 221.402602 
z
" style="fill:#1f77b4;"/>
   </g>
   <g id="patch_46">
    <path clip-path="url(#pbf56dbf3ab)" d="M 136.857411 273.312 
L 138.476336 273.312 
L 138.476336 215.906313 
L 136.857411 215.906313 
z
" style="fill:#1f77b4;"/>
   </g>
   <g id="patch_47">
    <path clip-path="url(#pbf56dbf3ab)" d="M 138.476336 273.312 
L 140.095261 273.312 
L 140.095261 213.463518 
L 138.476336 213.463518 
z
" style="fill:#1f77b4;"/>
   </g>
   <g id="patch_48">
    <path clip-path="url(#pbf56dbf3ab)" d="M 140.095261 273.312 
L 141.714186 273.312 
L 141.714186 217.127711 
L 140.095261 217.127711 
z
" style="fill:#1f77b4;"/>
   </g>
   <g id="patch_49">
    <path clip-path="url(#pbf56dbf3ab)" d="M 141.714186 273.312 
L 143.333111 273.312 
L 143.333111 223.234699 
L 141.714186 223.234699 
z
" style="fill:#1f77b4;"/>
   </g>
   <g id="patch_50">
    <path clip-path="url(#pbf56dbf3ab)" d="M 143.333111 273.312 
L 144.952036 273.312 
L 144.952036 223.845398 
L 143.333111 223.845398 
z
" style="fill:#1f77b4;"/>
   </g>
   <g id="patch_51">
    <path clip-path="url(#pbf56dbf3ab)" d="M 144.952036 273.312 
L 146.570961 273.312 
L 146.570961 215.906313 
L 144.952036 215.906313 
z
" style="fill:#1f77b4;"/>
   </g>
   <g id="patch_52">
    <path clip-path="url(#pbf56dbf3ab)" d="M 146.570961 273.312 
L 148.189886 273.312 
L 148.189886 201.860241 
L 146.570961 201.860241 
z
" style="fill:#1f77b4;"/>
   </g>
   <g id="patch_53">
    <path clip-path="url(#pbf56dbf3ab)" d="M 148.189886 273.312 
L 149.808811 273.312 
L 149.808811 199.417446 
L 148.189886 199.417446 
z
" style="fill:#1f77b4;"/>
   </g>
   <g id="patch_54">
    <path clip-path="url(#pbf56dbf3ab)" d="M 149.808811 273.312 
L 151.427736 273.312 
L 151.427736 220.791904 
L 149.808811 220.791904 
z
" style="fill:#1f77b4;"/>
   </g>
   <g id="patch_55">
    <path clip-path="url(#pbf56dbf3ab)" d="M 151.427736 273.312 
L 153.046661 273.312 
L 153.046661 206.135133 
L 151.427736 206.135133 
z
" style="fill:#1f77b4;"/>
   </g>
   <g id="patch_56">
    <path clip-path="url(#pbf56dbf3ab)" d="M 153.046661 273.312 
L 154.665586 273.312 
L 154.665586 203.081639 
L 153.046661 203.081639 
z
" style="fill:#1f77b4;"/>
   </g>
   <g id="patch_57">
    <path clip-path="url(#pbf56dbf3ab)" d="M 154.665586 273.312 
L 156.284511 273.312 
L 156.284511 214.684916 
L 154.665586 214.684916 
z
" style="fill:#1f77b4;"/>
   </g>
   <g id="patch_58">
    <path clip-path="url(#pbf56dbf3ab)" d="M 156.284511 273.312 
L 157.903436 273.312 
L 157.903436 199.417446 
L 156.284511 199.417446 
z
" style="fill:#1f77b4;"/>
   </g>
   <g id="patch_59">
    <path clip-path="url(#pbf56dbf3ab)" d="M 157.903436 273.312 
L 159.522361 273.312 
L 159.522361 204.303036 
L 157.903436 204.303036 
z
" style="fill:#1f77b4;"/>
   </g>
   <g id="patch_60">
    <path clip-path="url(#pbf56dbf3ab)" d="M 159.522361 273.312 
L 161.141286 273.312 
L 161.141286 208.577928 
L 159.522361 208.577928 
z
" style="fill:#1f77b4;"/>
   </g>
   <g id="patch_61">
    <path clip-path="url(#pbf56dbf3ab)" d="M 161.141286 273.312 
L 162.760211 273.312 
L 162.760211 203.081639 
L 161.141286 203.081639 
z
" style="fill:#1f77b4;"/>
   </g>
   <g id="patch_62">
    <path clip-path="url(#pbf56dbf3ab)" d="M 162.760211 273.312 
L 164.379136 273.312 
L 164.379136 193.310458 
L 162.760211 193.310458 
z
" style="fill:#1f77b4;"/>
   </g>
   <g id="patch_63">
    <path clip-path="url(#pbf56dbf3ab)" d="M 164.379136 273.312 
L 165.998061 273.312 
L 165.998061 190.867663 
L 164.379136 190.867663 
z
" style="fill:#1f77b4;"/>
   </g>
   <g id="patch_64">
    <path clip-path="url(#pbf56dbf3ab)" d="M 165.998061 273.312 
L 167.616986 273.312 
L 167.616986 194.531855 
L 165.998061 194.531855 
z
" style="fill:#1f77b4;"/>
   </g>
   <g id="patch_65">
    <path clip-path="url(#pbf56dbf3ab)" d="M 167.616986 273.312 
L 169.235911 273.312 
L 169.235911 196.363952 
L 167.616986 196.363952 
z
" style="fill:#1f77b4;"/>
   </g>
   <g id="patch_66">
    <path clip-path="url(#pbf56dbf3ab)" d="M 169.235911 273.312 
L 170.854837 273.312 
L 170.854837 200.028145 
L 169.235911 200.028145 
z
" style="fill:#1f77b4;"/>
   </g>
   <g id="patch_67">
    <path clip-path="url(#pbf56dbf3ab)" d="M 170.854837 273.312 
L 172.473762 273.312 
L 172.473762 189.035566 
L 170.854837 189.035566 
z
" style="fill:#1f77b4;"/>
   </g>
   <g id="patch_68">
    <path clip-path="url(#pbf56dbf3ab)" d="M 172.473762 273.312 
L 174.092687 273.312 
L 174.092687 194.531855 
L 172.473762 194.531855 
z
" style="fill:#1f77b4;"/>
   </g>
   <g id="patch_69">
    <path clip-path="url(#pbf56dbf3ab)" d="M 174.092687 273.312 
L 175.711612 273.312 
L 175.711612 205.524434 
L 174.092687 205.524434 
z
" style="fill:#1f77b4;"/>
   </g>
   <g id="patch_70">
    <path clip-path="url(#pbf56dbf3ab)" d="M 175.711612 273.312 
L 177.330537 273.312 
L 177.330537 181.707181 
L 175.711612 181.707181 
z
" style="fill:#1f77b4;"/>
   </g>
   <g id="patch_71">
    <path clip-path="url(#pbf56dbf3ab)" d="M 177.330537 273.312 
L 178.949462 273.312 
L 178.949462 188.424867 
L 177.330537 188.424867 
z
" style="fill:#1f77b4;"/>
   </g>
   <g id="patch_72">
    <path clip-path="url(#pbf56dbf3ab)" d="M 178.949462 273.312 
L 180.568387 273.312 
L 180.568387 197.585349 
L 178.949462 197.585349 
z
" style="fill:#1f77b4;"/>
   </g>
   <g id="patch_73">
    <path clip-path="url(#pbf56dbf3ab)" d="M 180.568387 273.312 
L 182.187312 273.312 
L 182.187312 187.20347 
L 180.568387 187.20347 
z
" style="fill:#1f77b4;"/>
   </g>
   <g id="patch_74">
    <path clip-path="url(#pbf56dbf3ab)" d="M 182.187312 273.312 
L 183.806237 273.312 
L 183.806237 187.814169 
L 182.187312 187.814169 
z
" style="fill:#1f77b4;"/>
   </g>
   <g id="patch_75">
    <path clip-path="url(#pbf56dbf3ab)" d="M 183.806237 273.312 
L 185.425162 273.312 
L 185.425162 187.20347 
L 183.806237 187.20347 
z
" style="fill:#1f77b4;"/>
   </g>
   <g id="patch_76">
    <path clip-path="url(#pbf56dbf3ab)" d="M 185.425162 273.312 
L 187.044087 273.312 
L 187.044087 192.699759 
L 185.425162 192.699759 
z
" style="fill:#1f77b4;"/>
   </g>
   <g id="patch_77">
    <path clip-path="url(#pbf56dbf3ab)" d="M 187.044087 273.312 
L 188.663012 273.312 
L 188.663012 183.539277 
L 187.044087 183.539277 
z
" style="fill:#1f77b4;"/>
   </g>
   <g id="patch_78">
    <path clip-path="url(#pbf56dbf3ab)" d="M 188.663012 273.312 
L 190.281937 273.312 
L 190.281937 168.882506 
L 188.663012 168.882506 
z
" style="fill:#1f77b4;"/>
   </g>
   <g id="patch_79">
    <path clip-path="url(#pbf56dbf3ab)" d="M 190.281937 273.312 
L 191.900862 273.312 
L 191.900862 182.31788 
L 190.281937 182.31788 
z
" style="fill:#1f77b4;"/>
   </g>
   <g id="patch_80">
    <path clip-path="url(#pbf56dbf3ab)" d="M 191.900862 273.312 
L 193.519787 273.312 
L 193.519787 184.760675 
L 191.900862 184.760675 
z
" style="fill:#1f77b4;"/>
   </g>
   <g id="patch_81">
    <path clip-path="url(#pbf56dbf3ab)" d="M 193.519787 273.312 
L 195.138712 273.312 
L 195.138712 182.928578 
L 193.519787 182.928578 
z
" style="fill:#1f77b4;"/>
   </g>
   <g id="patch_82">
    <path clip-path="url(#pbf56dbf3ab)" d="M 195.138712 273.312 
L 196.757637 273.312 
L 196.757637 166.439711 
L 195.138712 166.439711 
z
" style="fill:#1f77b4;"/>
   </g>
   <g id="patch_83">
    <path clip-path="url(#pbf56dbf3ab)" d="M 196.757637 273.312 
L 198.376562 273.312 
L 198.376562 167.05041 
L 196.757637 167.05041 
z
" style="fill:#1f77b4;"/>
   </g>
   <g id="patch_84">
    <path clip-path="url(#pbf56dbf3ab)" d="M 198.376562 273.312 
L 199.995487 273.312 
L 199.995487 167.661108 
L 198.376562 167.661108 
z
" style="fill:#1f77b4;"/>
   </g>
   <g id="patch_85">
    <path clip-path="url(#pbf56dbf3ab)" d="M 199.995487 273.312 
L 201.614412 273.312 
L 201.614412 170.103904 
L 199.995487 170.103904 
z
" style="fill:#1f77b4;"/>
   </g>
   <g id="patch_86">
    <path clip-path="url(#pbf56dbf3ab)" d="M 201.614412 273.312 
L 203.233337 273.312 
L 203.233337 171.325301 
L 201.614412 171.325301 
z
" style="fill:#1f77b4;"/>
   </g>
   <g id="patch_87">
    <path clip-path="url(#pbf56dbf3ab)" d="M 203.233337 273.312 
L 204.852262 273.312 
L 204.852262 161.55412 
L 203.233337 161.55412 
z
" style="fill:#1f77b4;"/>
   </g>
   <g id="patch_88">
    <path clip-path="url(#pbf56dbf3ab)" d="M 204.852262 273.312 
L 206.471188 273.312 
L 206.471188 173.157398 
L 204.852262 173.157398 
z
" style="fill:#1f77b4;"/>
   </g>
   <g id="patch_89">
    <path clip-path="url(#pbf56dbf3ab)" d="M 206.471188 273.312 
L 208.090113 273.312 
L 208.090113 167.661108 
L 206.471188 167.661108 
z
" style="fill:#1f77b4;"/>
   </g>
   <g id="patch_90">
    <path clip-path="url(#pbf56dbf3ab)" d="M 208.090113 273.312 
L 209.709038 273.312 
L 209.709038 149.340145 
L 208.090113 149.340145 
z
" style="fill:#1f77b4;"/>
   </g>
   <g id="patch_91">
    <path clip-path="url(#pbf56dbf3ab)" d="M 209.709038 273.312 
L 211.327963 273.312 
L 211.327963 169.493205 
L 209.709038 169.493205 
z
" style="fill:#1f77b4;"/>
   </g>
   <g id="patch_92">
    <path clip-path="url(#pbf56dbf3ab)" d="M 211.327963 273.312 
L 212.946888 273.312 
L 212.946888 181.096482 
L 211.327963 181.096482 
z
" style="fill:#1f77b4;"/>
   </g>
   <g id="patch_93">
    <path clip-path="url(#pbf56dbf3ab)" d="M 212.946888 273.312 
L 214.565813 273.312 
L 214.565813 167.05041 
L 212.946888 167.05041 
z
" style="fill:#1f77b4;"/>
   </g>
   <g id="patch_94">
    <path clip-path="url(#pbf56dbf3ab)" d="M 214.565813 273.312 
L 216.184738 273.312 
L 216.184738 158.500627 
L 214.565813 158.500627 
z
" style="fill:#1f77b4;"/>
   </g>
   <g id="patch_95">
    <path clip-path="url(#pbf56dbf3ab)" d="M 216.184738 273.312 
L 217.803663 273.312 
L 217.803663 168.271807 
L 216.184738 168.271807 
z
" style="fill:#1f77b4;"/>
   </g>
   <g id="patch_96">
    <path clip-path="url(#pbf56dbf3ab)" d="M 217.803663 273.312 
L 219.422588 273.312 
L 219.422588 153.615036 
L 217.803663 153.615036 
z
" style="fill:#1f77b4;"/>
   </g>
   <g id="patch_97">
    <path clip-path="url(#pbf56dbf3ab)" d="M 219.422588 273.312 
L 221.041513 273.312 
L 221.041513 154.836434 
L 219.422588 154.836434 
z
" style="fill:#1f77b4;"/>
   </g>
   <g id="patch_98">
    <path clip-path="url(#pbf56dbf3ab)" d="M 221.041513 273.312 
L 222.660438 273.312 
L 222.660438 165.829012 
L 221.041513 165.829012 
z
" style="fill:#1f77b4;"/>
   </g>
   <g id="patch_99">
    <path clip-path="url(#pbf56dbf3ab)" d="M 222.660438 273.312 
L 224.279363 273.312 
L 224.279363 158.500627 
L 222.660438 158.500627 
z
" style="fill:#1f77b4;"/>
   </g>
   <g id="patch_100">
    <path clip-path="url(#pbf56dbf3ab)" d="M 224.279363 273.312 
L 225.898288 273.312 
L 225.898288 160.332723 
L 224.279363 160.332723 
z
" style="fill:#1f77b4;"/>
   </g>
   <g id="patch_101">
    <path clip-path="url(#pbf56dbf3ab)" d="M 225.898288 273.312 
L 227.517213 273.312 
L 227.517213 153.004337 
L 225.898288 153.004337 
z
" style="fill:#1f77b4;"/>
   </g>
   <g id="patch_102">
    <path clip-path="url(#pbf56dbf3ab)" d="M 227.517213 273.312 
L 229.136138 273.312 
L 229.136138 141.40106 
L 227.517213 141.40106 
z
" style="fill:#1f77b4;"/>
   </g>
   <g id="patch_103">
    <path clip-path="url(#pbf56dbf3ab)" d="M 229.136138 273.312 
L 230.755063 273.312 
L 230.755063 158.500627 
L 229.136138 158.500627 
z
" style="fill:#1f77b4;"/>
   </g>
   <g id="patch_104">
    <path clip-path="url(#pbf56dbf3ab)" d="M 230.755063 273.312 
L 232.373988 273.312 
L 232.373988 148.729446 
L 230.755063 148.729446 
z
" style="fill:#1f77b4;"/>
   </g>
   <g id="patch_105">
    <path clip-path="url(#pbf56dbf3ab)" d="M 232.373988 273.312 
L 233.992913 273.312 
L 233.992913 155.447133 
L 232.373988 155.447133 
z
" style="fill:#1f77b4;"/>
   </g>
   <g id="patch_106">
    <path clip-path="url(#pbf56dbf3ab)" d="M 233.992913 273.312 
L 235.611838 273.312 
L 235.611838 151.172241 
L 233.992913 151.172241 
z
" style="fill:#1f77b4;"/>
   </g>
   <g id="patch_107">
    <path clip-path="url(#pbf56dbf3ab)" d="M 235.611838 273.312 
L 237.230763 273.312 
L 237.230763 156.66853 
L 235.611838 156.66853 
z
" style="fill:#1f77b4;"/>
   </g>
   <g id="patch_108">
    <path clip-path="url(#pbf56dbf3ab)" d="M 237.230763 273.312 
L 238.849688 273.312 
L 238.849688 151.78294 
L 237.230763 151.78294 
z
" style="fill:#1f77b4;"/>
   </g>
   <g id="patch_109">
    <path clip-path="url(#pbf56dbf3ab)" d="M 238.849688 273.312 
L 240.468613 273.312 
L 240.468613 140.179663 
L 238.849688 140.179663 
z
" style="fill:#1f77b4;"/>
   </g>
   <g id="patch_110">
    <path clip-path="url(#pbf56dbf3ab)" d="M 240.468613 273.312 
L 242.087539 273.312 
L 242.087539 131.62988 
L 240.468613 131.62988 
z
" style="fill:#1f77b4;"/>
   </g>
   <g id="patch_111">
    <path clip-path="url(#pbf56dbf3ab)" d="M 242.087539 273.312 
L 243.706464 273.312 
L 243.706464 134.072675 
L 242.087539 134.072675 
z
" style="fill:#1f77b4;"/>
   </g>
   <g id="patch_112">
    <path clip-path="url(#pbf56dbf3ab)" d="M 243.706464 273.312 
L 245.325389 273.312 
L 245.325389 132.240578 
L 243.706464 132.240578 
z
" style="fill:#1f77b4;"/>
   </g>
   <g id="patch_113">
    <path clip-path="url(#pbf56dbf3ab)" d="M 245.325389 273.312 
L 246.944314 273.312 
L 246.944314 125.522892 
L 245.325389 125.522892 
z
" style="fill:#1f77b4;"/>
   </g>
   <g id="patch_114">
    <path clip-path="url(#pbf56dbf3ab)" d="M 246.944314 273.312 
L 248.563239 273.312 
L 248.563239 130.408482 
L 246.944314 130.408482 
z
" style="fill:#1f77b4;"/>
   </g>
   <g id="patch_115">
    <path clip-path="url(#pbf56dbf3ab)" d="M 248.563239 273.312 
L 250.182164 273.312 
L 250.182164 120.637301 
L 248.563239 120.637301 
z
" style="fill:#1f77b4;"/>
   </g>
   <g id="patch_116">
    <path clip-path="url(#pbf56dbf3ab)" d="M 250.182164 273.312 
L 251.801089 273.312 
L 251.801089 121.248 
L 250.182164 121.248 
z
" style="fill:#1f77b4;"/>
   </g>
   <g id="patch_117">
    <path clip-path="url(#pbf56dbf3ab)" d="M 251.801089 273.312 
L 253.420014 273.312 
L 253.420014 141.40106 
L 251.801089 141.40106 
z
" style="fill:#1f77b4;"/>
   </g>
   <g id="patch_118">
    <path clip-path="url(#pbf56dbf3ab)" d="M 253.420014 273.312 
L 255.038939 273.312 
L 255.038939 136.51547 
L 253.420014 136.51547 
z
" style="fill:#1f77b4;"/>
   </g>
   <g id="patch_119">
    <path clip-path="url(#pbf56dbf3ab)" d="M 255.038939 273.312 
L 256.657864 273.312 
L 256.657864 138.347566 
L 255.038939 138.347566 
z
" style="fill:#1f77b4;"/>
   </g>
   <g id="patch_120">
    <path clip-path="url(#pbf56dbf3ab)" d="M 256.657864 273.312 
L 258.276789 273.312 
L 258.276789 138.958265 
L 256.657864 138.958265 
z
" style="fill:#1f77b4;"/>
   </g>
   <g id="patch_121">
    <path clip-path="url(#pbf56dbf3ab)" d="M 258.276789 273.312 
L 259.895714 273.312 
L 259.895714 135.294072 
L 258.276789 135.294072 
z
" style="fill:#1f77b4;"/>
   </g>
   <g id="patch_122">
    <path clip-path="url(#pbf56dbf3ab)" d="M 259.895714 273.312 
L 261.514639 273.312 
L 261.514639 137.126169 
L 259.895714 137.126169 
z
" style="fill:#1f77b4;"/>
   </g>
   <g id="patch_123">
    <path clip-path="url(#pbf56dbf3ab)" d="M 261.514639 273.312 
L 263.133564 273.312 
L 263.133564 113.919614 
L 261.514639 113.919614 
z
" style="fill:#1f77b4;"/>
   </g>
   <g id="patch_124">
    <path clip-path="url(#pbf56dbf3ab)" d="M 263.133564 273.312 
L 264.752489 273.312 
L 264.752489 136.51547 
L 263.133564 136.51547 
z
" style="fill:#1f77b4;"/>
   </g>
   <g id="patch_125">
    <path clip-path="url(#pbf56dbf3ab)" d="M 264.752489 273.312 
L 266.371414 273.312 
L 266.371414 110.86612 
L 264.752489 110.86612 
z
" style="fill:#1f77b4;"/>
   </g>
   <g id="patch_126">
    <path clip-path="url(#pbf56dbf3ab)" d="M 266.371414 273.312 
L 267.990339 273.312 
L 267.990339 127.965687 
L 266.371414 127.965687 
z
" style="fill:#1f77b4;"/>
   </g>
   <g id="patch_127">
    <path clip-path="url(#pbf56dbf3ab)" d="M 267.990339 273.312 
L 269.609264 273.312 
L 269.609264 117.583807 
L 267.990339 117.583807 
z
" style="fill:#1f77b4;"/>
   </g>
   <g id="patch_128">
    <path clip-path="url(#pbf56dbf3ab)" d="M 269.609264 273.312 
L 271.228189 273.312 
L 271.228189 140.790361 
L 269.609264 140.790361 
z
" style="fill:#1f77b4;"/>
   </g>
   <g id="patch_129">
    <path clip-path="url(#pbf56dbf3ab)" d="M 271.228189 273.312 
L 272.847114 273.312 
L 272.847114 118.194506 
L 271.228189 118.194506 
z
" style="fill:#1f77b4;"/>
   </g>
   <g id="patch_130">
    <path clip-path="url(#pbf56dbf3ab)" d="M 272.847114 273.312 
L 274.466039 273.312 
L 274.466039 118.805205 
L 272.847114 118.805205 
z
" style="fill:#1f77b4;"/>
   </g>
   <g id="patch_131">
    <path clip-path="url(#pbf56dbf3ab)" d="M 274.466039 273.312 
L 276.084964 273.312 
L 276.084964 126.744289 
L 274.466039 126.744289 
z
" style="fill:#1f77b4;"/>
   </g>
   <g id="patch_132">
    <path clip-path="url(#pbf56dbf3ab)" d="M 276.084964 273.312 
L 277.703889 273.312 
L 277.703889 109.034024 
L 276.084964 109.034024 
z
" style="fill:#1f77b4;"/>
   </g>
   <g id="patch_133">
    <path clip-path="url(#pbf56dbf3ab)" d="M 277.703889 273.312 
L 279.322815 273.312 
L 279.322815 124.301494 
L 277.703889 124.301494 
z
" style="fill:#1f77b4;"/>
   </g>
   <g id="patch_134">
    <path clip-path="url(#pbf56dbf3ab)" d="M 279.322815 273.312 
L 280.94174 273.312 
L 280.94174 107.812627 
L 279.322815 107.812627 
z
" style="fill:#1f77b4;"/>
   </g>
   <g id="patch_135">
    <path clip-path="url(#pbf56dbf3ab)" d="M 280.94174 273.312 
L 282.560665 273.312 
L 282.560665 110.86612 
L 280.94174 110.86612 
z
" style="fill:#1f77b4;"/>
   </g>
   <g id="patch_136">
    <path clip-path="url(#pbf56dbf3ab)" d="M 282.560665 273.312 
L 284.17959 273.312 
L 284.17959 105.98053 
L 282.560665 105.98053 
z
" style="fill:#1f77b4;"/>
   </g>
   <g id="patch_137">
    <path clip-path="url(#pbf56dbf3ab)" d="M 284.17959 273.312 
L 285.798515 273.312 
L 285.798515 113.308916 
L 284.17959 113.308916 
z
" style="fill:#1f77b4;"/>
   </g>
   <g id="patch_138">
    <path clip-path="url(#pbf56dbf3ab)" d="M 285.798515 273.312 
L 287.41744 273.312 
L 287.41744 105.98053 
L 285.798515 105.98053 
z
" style="fill:#1f77b4;"/>
   </g>
   <g id="patch_139">
    <path clip-path="url(#pbf56dbf3ab)" d="M 287.41744 273.312 
L 289.036365 273.312 
L 289.036365 100.484241 
L 287.41744 100.484241 
z
" style="fill:#1f77b4;"/>
   </g>
   <g id="patch_140">
    <path clip-path="url(#pbf56dbf3ab)" d="M 289.036365 273.312 
L 290.65529 273.312 
L 290.65529 97.430747 
L 289.036365 97.430747 
z
" style="fill:#1f77b4;"/>
   </g>
   <g id="patch_141">
    <path clip-path="url(#pbf56dbf3ab)" d="M 290.65529 273.312 
L 292.274215 273.312 
L 292.274215 121.248 
L 290.65529 121.248 
z
" style="fill:#1f77b4;"/>
   </g>
   <g id="patch_142">
    <path clip-path="url(#pbf56dbf3ab)" d="M 292.274215 273.312 
L 293.89314 273.312 
L 293.89314 102.927036 
L 292.274215 102.927036 
z
" style="fill:#1f77b4;"/>
   </g>
   <g id="patch_143">
    <path clip-path="url(#pbf56dbf3ab)" d="M 293.89314 273.312 
L 295.512065 273.312 
L 295.512065 102.316337 
L 293.89314 102.316337 
z
" style="fill:#1f77b4;"/>
   </g>
   <g id="patch_144">
    <path clip-path="url(#pbf56dbf3ab)" d="M 295.512065 273.312 
L 297.13099 273.312 
L 297.13099 99.262843 
L 295.512065 99.262843 
z
" style="fill:#1f77b4;"/>
   </g>
   <g id="patch_145">
    <path clip-path="url(#pbf56dbf3ab)" d="M 297.13099 273.312 
L 298.749915 273.312 
L 298.749915 83.995373 
L 297.13099 83.995373 
z
" style="fill:#1f77b4;"/>
   </g>
   <g id="patch_146">
    <path clip-path="url(#pbf56dbf3ab)" d="M 298.749915 273.312 
L 300.36884 273.312 
L 300.36884 94.987952 
L 298.749915 94.987952 
z
" style="fill:#1f77b4;"/>
   </g>
   <g id="patch_147">
    <path clip-path="url(#pbf56dbf3ab)" d="M 300.36884 273.312 
L 301.987765 273.312 
L 301.987765 84.606072 
L 300.36884 84.606072 
z
" style="fill:#1f77b4;"/>
   </g>
   <g id="patch_148">
    <path clip-path="url(#pbf56dbf3ab)" d="M 301.987765 273.312 
L 303.60669 273.312 
L 303.60669 96.209349 
L 301.987765 96.209349 
z
" style="fill:#1f77b4;"/>
   </g>
   <g id="patch_149">
    <path clip-path="url(#pbf56dbf3ab)" d="M 303.60669 273.312 
L 305.225615 273.312 
L 305.225615 95.598651 
L 303.60669 95.598651 
z
" style="fill:#1f77b4;"/>
   </g>
   <g id="patch_150">
    <path clip-path="url(#pbf56dbf3ab)" d="M 305.225615 273.312 
L 306.84454 273.312 
L 306.84454 98.652145 
L 305.225615 98.652145 
z
" style="fill:#1f77b4;"/>
   </g>
   <g id="patch_151">
    <path clip-path="url(#pbf56dbf3ab)" d="M 306.84454 273.312 
L 308.463465 273.312 
L 308.463465 90.71306 
L 306.84454 90.71306 
z
" style="fill:#1f77b4;"/>
   </g>
   <g id="patch_152">
    <path clip-path="url(#pbf56dbf3ab)" d="M 308.463465 273.312 
L 310.08239 273.312 
L 310.08239 97.430747 
L 308.463465 97.430747 
z
" style="fill:#1f77b4;"/>
   </g>
   <g id="patch_153">
    <path clip-path="url(#pbf56dbf3ab)" d="M 310.08239 273.312 
L 311.701315 273.312 
L 311.701315 104.759133 
L 310.08239 104.759133 
z
" style="fill:#1f77b4;"/>
   </g>
   <g id="patch_154">
    <path clip-path="url(#pbf56dbf3ab)" d="M 311.701315 273.312 
L 313.32024 273.312 
L 313.32024 94.987952 
L 311.701315 94.987952 
z
" style="fill:#1f77b4;"/>
   </g>
   <g id="patch_155">
    <path clip-path="url(#pbf56dbf3ab)" d="M 313.32024 273.312 
L 314.939166 273.312 
L 314.939166 82.773976 
L 313.32024 82.773976 
z
" style="fill:#1f77b4;"/>
   </g>
   <g id="patch_156">
    <path clip-path="url(#pbf56dbf3ab)" d="M 314.939166 273.312 
L 316.558091 273.312 
L 316.558091 66.895807 
L 314.939166 66.895807 
z
" style="fill:#1f77b4;"/>
   </g>
   <g id="patch_157">
    <path clip-path="url(#pbf56dbf3ab)" d="M 316.558091 273.312 
L 318.177016 273.312 
L 318.177016 87.659566 
L 316.558091 87.659566 
z
" style="fill:#1f77b4;"/>
   </g>
   <g id="patch_158">
    <path clip-path="url(#pbf56dbf3ab)" d="M 318.177016 273.312 
L 319.795941 273.312 
L 319.795941 82.773976 
L 318.177016 82.773976 
z
" style="fill:#1f77b4;"/>
   </g>
   <g id="patch_159">
    <path clip-path="url(#pbf56dbf3ab)" d="M 319.795941 273.312 
L 321.414866 273.312 
L 321.414866 94.377253 
L 319.795941 94.377253 
z
" style="fill:#1f77b4;"/>
   </g>
   <g id="patch_160">
    <path clip-path="url(#pbf56dbf3ab)" d="M 321.414866 273.312 
L 323.033791 273.312 
L 323.033791 85.82747 
L 321.414866 85.82747 
z
" style="fill:#1f77b4;"/>
   </g>
   <g id="patch_161">
    <path clip-path="url(#pbf56dbf3ab)" d="M 323.033791 273.312 
L 324.652716 273.312 
L 324.652716 76.056289 
L 323.033791 76.056289 
z
" style="fill:#1f77b4;"/>
   </g>
   <g id="patch_162">
    <path clip-path="url(#pbf56dbf3ab)" d="M 324.652716 273.312 
L 326.271641 273.312 
L 326.271641 66.895807 
L 324.652716 66.895807 
z
" style="fill:#1f77b4;"/>
   </g>
   <g id="patch_163">
    <path clip-path="url(#pbf56dbf3ab)" d="M 326.271641 273.312 
L 327.890566 273.312 
L 327.890566 65.063711 
L 326.271641 65.063711 
z
" style="fill:#1f77b4;"/>
   </g>
   <g id="patch_164">
    <path clip-path="url(#pbf56dbf3ab)" d="M 327.890566 273.312 
L 329.509491 273.312 
L 329.509491 99.262843 
L 327.890566 99.262843 
z
" style="fill:#1f77b4;"/>
   </g>
   <g id="patch_165">
    <path clip-path="url(#pbf56dbf3ab)" d="M 329.509491 273.312 
L 331.128416 273.312 
L 331.128416 68.117205 
L 329.509491 68.117205 
z
" style="fill:#1f77b4;"/>
   </g>
   <g id="patch_166">
    <path clip-path="url(#pbf56dbf3ab)" d="M 331.128416 273.312 
L 332.747341 273.312 
L 332.747341 69.338602 
L 331.128416 69.338602 
z
" style="fill:#1f77b4;"/>
   </g>
   <g id="patch_167">
    <path clip-path="url(#pbf56dbf3ab)" d="M 332.747341 273.312 
L 334.366266 273.312 
L 334.366266 71.170699 
L 332.747341 71.170699 
z
" style="fill:#1f77b4;"/>
   </g>
   <g id="patch_168">
    <path clip-path="url(#pbf56dbf3ab)" d="M 334.366266 273.312 
L 335.985191 273.312 
L 335.985191 79.720482 
L 334.366266 79.720482 
z
" style="fill:#1f77b4;"/>
   </g>
   <g id="patch_169">
    <path clip-path="url(#pbf56dbf3ab)" d="M 335.985191 273.312 
L 337.604116 273.312 
L 337.604116 73.613494 
L 335.985191 73.613494 
z
" style="fill:#1f77b4;"/>
   </g>
   <g id="patch_170">
    <path clip-path="url(#pbf56dbf3ab)" d="M 337.604116 273.312 
L 339.223041 273.312 
L 339.223041 66.895807 
L 337.604116 66.895807 
z
" style="fill:#1f77b4;"/>
   </g>
   <g id="patch_171">
    <path clip-path="url(#pbf56dbf3ab)" d="M 339.223041 273.312 
L 340.841966 273.312 
L 340.841966 68.727904 
L 339.223041 68.727904 
z
" style="fill:#1f77b4;"/>
   </g>
   <g id="patch_172">
    <path clip-path="url(#pbf56dbf3ab)" d="M 340.841966 273.312 
L 342.460891 273.312 
L 342.460891 74.224193 
L 340.841966 74.224193 
z
" style="fill:#1f77b4;"/>
   </g>
   <g id="patch_173">
    <path clip-path="url(#pbf56dbf3ab)" d="M 342.460891 273.312 
L 344.079816 273.312 
L 344.079816 68.117205 
L 342.460891 68.117205 
z
" style="fill:#1f77b4;"/>
   </g>
   <g id="patch_174">
    <path clip-path="url(#pbf56dbf3ab)" d="M 344.079816 273.312 
L 345.698741 273.312 
L 345.698741 63.231614 
L 344.079816 63.231614 
z
" style="fill:#1f77b4;"/>
   </g>
   <g id="patch_175">
    <path clip-path="url(#pbf56dbf3ab)" d="M 345.698741 273.312 
L 347.317666 273.312 
L 347.317666 68.727904 
L 345.698741 68.727904 
z
" style="fill:#1f77b4;"/>
   </g>
   <g id="patch_176">
    <path clip-path="url(#pbf56dbf3ab)" d="M 347.317666 273.312 
L 348.936591 273.312 
L 348.936591 64.453012 
L 347.317666 64.453012 
z
" style="fill:#1f77b4;"/>
   </g>
   <g id="patch_177">
    <path clip-path="url(#pbf56dbf3ab)" d="M 348.936591 273.312 
L 350.555517 273.312 
L 350.555517 73.002795 
L 348.936591 73.002795 
z
" style="fill:#1f77b4;"/>
   </g>
   <g id="patch_178">
    <path clip-path="url(#pbf56dbf3ab)" d="M 350.555517 273.312 
L 352.174442 273.312 
L 352.174442 62.620916 
L 350.555517 62.620916 
z
" style="fill:#1f77b4;"/>
   </g>
   <g id="patch_179">
    <path clip-path="url(#pbf56dbf3ab)" d="M 352.174442 273.312 
L 353.793367 273.312 
L 353.793367 51.017639 
L 352.174442 51.017639 
z
" style="fill:#1f77b4;"/>
   </g>
   <g id="patch_180">
    <path clip-path="url(#pbf56dbf3ab)" d="M 353.793367 273.312 
L 355.412292 273.312 
L 355.412292 56.513928 
L 353.793367 56.513928 
z
" style="fill:#1f77b4;"/>
   </g>
   <g id="patch_181">
    <path clip-path="url(#pbf56dbf3ab)" d="M 355.412292 273.312 
L 357.031217 273.312 
L 357.031217 52.239036 
L 355.412292 52.239036 
z
" style="fill:#1f77b4;"/>
   </g>
   <g id="patch_182">
    <path clip-path="url(#pbf56dbf3ab)" d="M 357.031217 273.312 
L 358.650142 273.312 
L 358.650142 65.063711 
L 357.031217 65.063711 
z
" style="fill:#1f77b4;"/>
   </g>
   <g id="patch_183">
    <path clip-path="url(#pbf56dbf3ab)" d="M 358.650142 273.312 
L 360.269067 273.312 
L 360.269067 67.506506 
L 358.650142 67.506506 
z
" style="fill:#1f77b4;"/>
   </g>
   <g id="patch_184">
    <path clip-path="url(#pbf56dbf3ab)" d="M 360.269067 273.312 
L 361.887992 273.312 
L 361.887992 49.185542 
L 360.269067 49.185542 
z
" style="fill:#1f77b4;"/>
   </g>
   <g id="patch_185">
    <path clip-path="url(#pbf56dbf3ab)" d="M 361.887992 273.312 
L 363.506917 273.312 
L 363.506917 32.085976 
L 361.887992 32.085976 
z
" style="fill:#1f77b4;"/>
   </g>
   <g id="patch_186">
    <path clip-path="url(#pbf56dbf3ab)" d="M 363.506917 273.312 
L 365.125842 273.312 
L 365.125842 52.239036 
L 363.506917 52.239036 
z
" style="fill:#1f77b4;"/>
   </g>
   <g id="patch_187">
    <path clip-path="url(#pbf56dbf3ab)" d="M 365.125842 273.312 
L 366.744767 273.312 
L 366.744767 57.735325 
L 365.125842 57.735325 
z
" style="fill:#1f77b4;"/>
   </g>
   <g id="patch_188">
    <path clip-path="url(#pbf56dbf3ab)" d="M 366.744767 273.312 
L 368.363692 273.312 
L 368.363692 50.40694 
L 366.744767 50.40694 
z
" style="fill:#1f77b4;"/>
   </g>
   <g id="patch_189">
    <path clip-path="url(#pbf56dbf3ab)" d="M 368.363692 273.312 
L 369.982617 273.312 
L 369.982617 65.67441 
L 368.363692 65.67441 
z
" style="fill:#1f77b4;"/>
   </g>
   <g id="patch_190">
    <path clip-path="url(#pbf56dbf3ab)" d="M 369.982617 273.312 
L 371.601542 273.312 
L 371.601542 40.02506 
L 369.982617 40.02506 
z
" style="fill:#1f77b4;"/>
   </g>
   <g id="patch_191">
    <path clip-path="url(#pbf56dbf3ab)" d="M 371.601542 273.312 
L 373.220467 273.312 
L 373.220467 32.696675 
L 371.601542 32.696675 
z
" style="fill:#1f77b4;"/>
   </g>
   <g id="patch_192">
    <path clip-path="url(#pbf56dbf3ab)" d="M 373.220467 273.312 
L 374.839392 273.312 
L 374.839392 39.414361 
L 373.220467 39.414361 
z
" style="fill:#1f77b4;"/>
   </g>
   <g id="patch_193">
    <path clip-path="url(#pbf56dbf3ab)" d="M 374.839392 273.312 
L 376.458317 273.312 
L 376.458317 29.032482 
L 374.839392 29.032482 
z
" style="fill:#1f77b4;"/>
   </g>
   <g id="patch_194">
    <path clip-path="url(#pbf56dbf3ab)" d="M 376.458317 273.312 
L 378.077242 273.312 
L 378.077242 49.185542 
L 376.458317 49.185542 
z
" style="fill:#1f77b4;"/>
   </g>
   <g id="patch_195">
    <path clip-path="url(#pbf56dbf3ab)" d="M 378.077242 273.312 
L 379.696167 273.312 
L 379.696167 38.803663 
L 378.077242 38.803663 
z
" style="fill:#1f77b4;"/>
   </g>
   <g id="patch_196">
    <path clip-path="url(#pbf56dbf3ab)" d="M 379.696167 273.312 
L 381.315092 273.312 
L 381.315092 21.704096 
L 379.696167 21.704096 
z
" style="fill:#1f77b4;"/>
   </g>
   <g id="patch_197">
    <path clip-path="url(#pbf56dbf3ab)" d="M 381.315092 273.312 
L 382.934017 273.312 
L 382.934017 46.742747 
L 381.315092 46.742747 
z
" style="fill:#1f77b4;"/>
   </g>
   <g id="patch_198">
    <path clip-path="url(#pbf56dbf3ab)" d="M 382.934017 273.312 
L 384.552942 273.312 
L 384.552942 19.872 
L 382.934017 19.872 
z
" style="fill:#1f77b4;"/>
   </g>
   <g id="patch_199">
    <path clip-path="url(#pbf56dbf3ab)" d="M 384.552942 273.312 
L 386.171867 273.312 
L 386.171867 29.643181 
L 384.552942 29.643181 
z
" style="fill:#1f77b4;"/>
   </g>
   <g id="patch_200">
    <path clip-path="url(#pbf56dbf3ab)" d="M 386.171867 273.312 
L 387.790793 273.312 
L 387.790793 40.635759 
L 386.171867 40.635759 
z
" style="fill:#1f77b4;"/>
   </g>
   <g id="patch_201">
    <path clip-path="url(#pbf56dbf3ab)" d="M 387.790793 273.312 
L 389.409718 273.312 
L 389.409718 22.925494 
L 387.790793 22.925494 
z
" style="fill:#1f77b4;"/>
   </g>
   <g id="patch_202">
    <path clip-path="url(#pbf56dbf3ab)" d="M 389.409718 273.312 
L 391.028643 273.312 
L 391.028643 31.475277 
L 389.409718 31.475277 
z
" style="fill:#1f77b4;"/>
   </g>
   <g id="matplotlib.axis_1">
    <g id="xtick_1">
     <g id="line2d_1">
      <defs>
       <path d="M 0 0 
L 0 3.5 
" id="maf7b5564cb" style="stroke:#000000;stroke-width:0.8;"/>
      </defs>
      <g>
       <use style="stroke:#000000;stroke-width:0.8;" x="66.376477" xlink:href="#maf7b5564cb" y="273.312"/>
      </g>
     </g>
     <g id="text_1">
      <!-- 0.0 -->
      <g transform="translate(58.424915 287.910437)scale(0.1 -0.1)">
       <defs>
        <path d="M 2034 4250 
Q 1547 4250 1301 3770 
Q 1056 3291 1056 2328 
Q 1056 1369 1301 889 
Q 1547 409 2034 409 
Q 2525 409 2770 889 
Q 3016 1369 3016 2328 
Q 3016 3291 2770 3770 
Q 2525 4250 2034 4250 
z
M 2034 4750 
Q 2819 4750 3233 4129 
Q 3647 3509 3647 2328 
Q 3647 1150 3233 529 
Q 2819 -91 2034 -91 
Q 1250 -91 836 529 
Q 422 1150 422 2328 
Q 422 3509 836 4129 
Q 1250 4750 2034 4750 
z
" id="DejaVuSans-30" transform="scale(0.015625)"/>
        <path d="M 684 794 
L 1344 794 
L 1344 0 
L 684 0 
L 684 794 
z
" id="DejaVuSans-2e" transform="scale(0.015625)"/>
       </defs>
       <use xlink:href="#DejaVuSans-30"/>
       <use x="63.623047" xlink:href="#DejaVuSans-2e"/>
       <use x="95.410156" xlink:href="#DejaVuSans-30"/>
      </g>
     </g>
    </g>
    <g id="xtick_2">
     <g id="line2d_2">
      <g>
       <use style="stroke:#000000;stroke-width:0.8;" x="131.307386" xlink:href="#maf7b5564cb" y="273.312"/>
      </g>
     </g>
     <g id="text_2">
      <!-- 0.2 -->
      <g transform="translate(123.355824 287.910437)scale(0.1 -0.1)">
       <defs>
        <path d="M 1228 531 
L 3431 531 
L 3431 0 
L 469 0 
L 469 531 
Q 828 903 1448 1529 
Q 2069 2156 2228 2338 
Q 2531 2678 2651 2914 
Q 2772 3150 2772 3378 
Q 2772 3750 2511 3984 
Q 2250 4219 1831 4219 
Q 1534 4219 1204 4116 
Q 875 4013 500 3803 
L 500 4441 
Q 881 4594 1212 4672 
Q 1544 4750 1819 4750 
Q 2544 4750 2975 4387 
Q 3406 4025 3406 3419 
Q 3406 3131 3298 2873 
Q 3191 2616 2906 2266 
Q 2828 2175 2409 1742 
Q 1991 1309 1228 531 
z
" id="DejaVuSans-32" transform="scale(0.015625)"/>
       </defs>
       <use xlink:href="#DejaVuSans-30"/>
       <use x="63.623047" xlink:href="#DejaVuSans-2e"/>
       <use x="95.410156" xlink:href="#DejaVuSans-32"/>
      </g>
     </g>
    </g>
    <g id="xtick_3">
     <g id="line2d_3">
      <g>
       <use style="stroke:#000000;stroke-width:0.8;" x="196.238295" xlink:href="#maf7b5564cb" y="273.312"/>
      </g>
     </g>
     <g id="text_3">
      <!-- 0.4 -->
      <g transform="translate(188.286733 287.910437)scale(0.1 -0.1)">
       <defs>
        <path d="M 2419 4116 
L 825 1625 
L 2419 1625 
L 2419 4116 
z
M 2253 4666 
L 3047 4666 
L 3047 1625 
L 3713 1625 
L 3713 1100 
L 3047 1100 
L 3047 0 
L 2419 0 
L 2419 1100 
L 313 1100 
L 313 1709 
L 2253 4666 
z
" id="DejaVuSans-34" transform="scale(0.015625)"/>
       </defs>
       <use xlink:href="#DejaVuSans-30"/>
       <use x="63.623047" xlink:href="#DejaVuSans-2e"/>
       <use x="95.410156" xlink:href="#DejaVuSans-34"/>
      </g>
     </g>
    </g>
    <g id="xtick_4">
     <g id="line2d_4">
      <g>
       <use style="stroke:#000000;stroke-width:0.8;" x="261.169205" xlink:href="#maf7b5564cb" y="273.312"/>
      </g>
     </g>
     <g id="text_4">
      <!-- 0.6 -->
      <g transform="translate(253.217642 287.910437)scale(0.1 -0.1)">
       <defs>
        <path d="M 2113 2584 
Q 1688 2584 1439 2293 
Q 1191 2003 1191 1497 
Q 1191 994 1439 701 
Q 1688 409 2113 409 
Q 2538 409 2786 701 
Q 3034 994 3034 1497 
Q 3034 2003 2786 2293 
Q 2538 2584 2113 2584 
z
M 3366 4563 
L 3366 3988 
Q 3128 4100 2886 4159 
Q 2644 4219 2406 4219 
Q 1781 4219 1451 3797 
Q 1122 3375 1075 2522 
Q 1259 2794 1537 2939 
Q 1816 3084 2150 3084 
Q 2853 3084 3261 2657 
Q 3669 2231 3669 1497 
Q 3669 778 3244 343 
Q 2819 -91 2113 -91 
Q 1303 -91 875 529 
Q 447 1150 447 2328 
Q 447 3434 972 4092 
Q 1497 4750 2381 4750 
Q 2619 4750 2861 4703 
Q 3103 4656 3366 4563 
z
" id="DejaVuSans-36" transform="scale(0.015625)"/>
       </defs>
       <use xlink:href="#DejaVuSans-30"/>
       <use x="63.623047" xlink:href="#DejaVuSans-2e"/>
       <use x="95.410156" xlink:href="#DejaVuSans-36"/>
      </g>
     </g>
    </g>
    <g id="xtick_5">
     <g id="line2d_5">
      <g>
       <use style="stroke:#000000;stroke-width:0.8;" x="326.100114" xlink:href="#maf7b5564cb" y="273.312"/>
      </g>
     </g>
     <g id="text_5">
      <!-- 0.8 -->
      <g transform="translate(318.148551 287.910437)scale(0.1 -0.1)">
       <defs>
        <path d="M 2034 2216 
Q 1584 2216 1326 1975 
Q 1069 1734 1069 1313 
Q 1069 891 1326 650 
Q 1584 409 2034 409 
Q 2484 409 2743 651 
Q 3003 894 3003 1313 
Q 3003 1734 2745 1975 
Q 2488 2216 2034 2216 
z
M 1403 2484 
Q 997 2584 770 2862 
Q 544 3141 544 3541 
Q 544 4100 942 4425 
Q 1341 4750 2034 4750 
Q 2731 4750 3128 4425 
Q 3525 4100 3525 3541 
Q 3525 3141 3298 2862 
Q 3072 2584 2669 2484 
Q 3125 2378 3379 2068 
Q 3634 1759 3634 1313 
Q 3634 634 3220 271 
Q 2806 -91 2034 -91 
Q 1263 -91 848 271 
Q 434 634 434 1313 
Q 434 1759 690 2068 
Q 947 2378 1403 2484 
z
M 1172 3481 
Q 1172 3119 1398 2916 
Q 1625 2713 2034 2713 
Q 2441 2713 2670 2916 
Q 2900 3119 2900 3481 
Q 2900 3844 2670 4047 
Q 2441 4250 2034 4250 
Q 1625 4250 1398 4047 
Q 1172 3844 1172 3481 
z
" id="DejaVuSans-38" transform="scale(0.015625)"/>
       </defs>
       <use xlink:href="#DejaVuSans-30"/>
       <use x="63.623047" xlink:href="#DejaVuSans-2e"/>
       <use x="95.410156" xlink:href="#DejaVuSans-38"/>
      </g>
     </g>
    </g>
    <g id="xtick_6">
     <g id="line2d_6">
      <g>
       <use style="stroke:#000000;stroke-width:0.8;" x="391.031023" xlink:href="#maf7b5564cb" y="273.312"/>
      </g>
     </g>
     <g id="text_6">
      <!-- 1.0 -->
      <g transform="translate(383.07946 287.910437)scale(0.1 -0.1)">
       <defs>
        <path d="M 794 531 
L 1825 531 
L 1825 4091 
L 703 3866 
L 703 4441 
L 1819 4666 
L 2450 4666 
L 2450 531 
L 3481 531 
L 3481 0 
L 794 0 
L 794 531 
z
" id="DejaVuSans-31" transform="scale(0.015625)"/>
       </defs>
       <use xlink:href="#DejaVuSans-31"/>
       <use x="63.623047" xlink:href="#DejaVuSans-2e"/>
       <use x="95.410156" xlink:href="#DejaVuSans-30"/>
      </g>
     </g>
    </g>
    <g id="text_7">
     <!-- Propagation direction -->
     <g transform="translate(175.221719 301.588562)scale(0.1 -0.1)">
      <defs>
       <path d="M 1259 4147 
L 1259 2394 
L 2053 2394 
Q 2494 2394 2734 2622 
Q 2975 2850 2975 3272 
Q 2975 3691 2734 3919 
Q 2494 4147 2053 4147 
L 1259 4147 
z
M 628 4666 
L 2053 4666 
Q 2838 4666 3239 4311 
Q 3641 3956 3641 3272 
Q 3641 2581 3239 2228 
Q 2838 1875 2053 1875 
L 1259 1875 
L 1259 0 
L 628 0 
L 628 4666 
z
" id="DejaVuSans-50" transform="scale(0.015625)"/>
       <path d="M 2631 2963 
Q 2534 3019 2420 3045 
Q 2306 3072 2169 3072 
Q 1681 3072 1420 2755 
Q 1159 2438 1159 1844 
L 1159 0 
L 581 0 
L 581 3500 
L 1159 3500 
L 1159 2956 
Q 1341 3275 1631 3429 
Q 1922 3584 2338 3584 
Q 2397 3584 2469 3576 
Q 2541 3569 2628 3553 
L 2631 2963 
z
" id="DejaVuSans-72" transform="scale(0.015625)"/>
       <path d="M 1959 3097 
Q 1497 3097 1228 2736 
Q 959 2375 959 1747 
Q 959 1119 1226 758 
Q 1494 397 1959 397 
Q 2419 397 2687 759 
Q 2956 1122 2956 1747 
Q 2956 2369 2687 2733 
Q 2419 3097 1959 3097 
z
M 1959 3584 
Q 2709 3584 3137 3096 
Q 3566 2609 3566 1747 
Q 3566 888 3137 398 
Q 2709 -91 1959 -91 
Q 1206 -91 779 398 
Q 353 888 353 1747 
Q 353 2609 779 3096 
Q 1206 3584 1959 3584 
z
" id="DejaVuSans-6f" transform="scale(0.015625)"/>
       <path d="M 1159 525 
L 1159 -1331 
L 581 -1331 
L 581 3500 
L 1159 3500 
L 1159 2969 
Q 1341 3281 1617 3432 
Q 1894 3584 2278 3584 
Q 2916 3584 3314 3078 
Q 3713 2572 3713 1747 
Q 3713 922 3314 415 
Q 2916 -91 2278 -91 
Q 1894 -91 1617 61 
Q 1341 213 1159 525 
z
M 3116 1747 
Q 3116 2381 2855 2742 
Q 2594 3103 2138 3103 
Q 1681 3103 1420 2742 
Q 1159 2381 1159 1747 
Q 1159 1113 1420 752 
Q 1681 391 2138 391 
Q 2594 391 2855 752 
Q 3116 1113 3116 1747 
z
" id="DejaVuSans-70" transform="scale(0.015625)"/>
       <path d="M 2194 1759 
Q 1497 1759 1228 1600 
Q 959 1441 959 1056 
Q 959 750 1161 570 
Q 1363 391 1709 391 
Q 2188 391 2477 730 
Q 2766 1069 2766 1631 
L 2766 1759 
L 2194 1759 
z
M 3341 1997 
L 3341 0 
L 2766 0 
L 2766 531 
Q 2569 213 2275 61 
Q 1981 -91 1556 -91 
Q 1019 -91 701 211 
Q 384 513 384 1019 
Q 384 1609 779 1909 
Q 1175 2209 1959 2209 
L 2766 2209 
L 2766 2266 
Q 2766 2663 2505 2880 
Q 2244 3097 1772 3097 
Q 1472 3097 1187 3025 
Q 903 2953 641 2809 
L 641 3341 
Q 956 3463 1253 3523 
Q 1550 3584 1831 3584 
Q 2591 3584 2966 3190 
Q 3341 2797 3341 1997 
z
" id="DejaVuSans-61" transform="scale(0.015625)"/>
       <path d="M 2906 1791 
Q 2906 2416 2648 2759 
Q 2391 3103 1925 3103 
Q 1463 3103 1205 2759 
Q 947 2416 947 1791 
Q 947 1169 1205 825 
Q 1463 481 1925 481 
Q 2391 481 2648 825 
Q 2906 1169 2906 1791 
z
M 3481 434 
Q 3481 -459 3084 -895 
Q 2688 -1331 1869 -1331 
Q 1566 -1331 1297 -1286 
Q 1028 -1241 775 -1147 
L 775 -588 
Q 1028 -725 1275 -790 
Q 1522 -856 1778 -856 
Q 2344 -856 2625 -561 
Q 2906 -266 2906 331 
L 2906 616 
Q 2728 306 2450 153 
Q 2172 0 1784 0 
Q 1141 0 747 490 
Q 353 981 353 1791 
Q 353 2603 747 3093 
Q 1141 3584 1784 3584 
Q 2172 3584 2450 3431 
Q 2728 3278 2906 2969 
L 2906 3500 
L 3481 3500 
L 3481 434 
z
" id="DejaVuSans-67" transform="scale(0.015625)"/>
       <path d="M 1172 4494 
L 1172 3500 
L 2356 3500 
L 2356 3053 
L 1172 3053 
L 1172 1153 
Q 1172 725 1289 603 
Q 1406 481 1766 481 
L 2356 481 
L 2356 0 
L 1766 0 
Q 1100 0 847 248 
Q 594 497 594 1153 
L 594 3053 
L 172 3053 
L 172 3500 
L 594 3500 
L 594 4494 
L 1172 4494 
z
" id="DejaVuSans-74" transform="scale(0.015625)"/>
       <path d="M 603 3500 
L 1178 3500 
L 1178 0 
L 603 0 
L 603 3500 
z
M 603 4863 
L 1178 4863 
L 1178 4134 
L 603 4134 
L 603 4863 
z
" id="DejaVuSans-69" transform="scale(0.015625)"/>
       <path d="M 3513 2113 
L 3513 0 
L 2938 0 
L 2938 2094 
Q 2938 2591 2744 2837 
Q 2550 3084 2163 3084 
Q 1697 3084 1428 2787 
Q 1159 2491 1159 1978 
L 1159 0 
L 581 0 
L 581 3500 
L 1159 3500 
L 1159 2956 
Q 1366 3272 1645 3428 
Q 1925 3584 2291 3584 
Q 2894 3584 3203 3211 
Q 3513 2838 3513 2113 
z
" id="DejaVuSans-6e" transform="scale(0.015625)"/>
       <path id="DejaVuSans-20" transform="scale(0.015625)"/>
       <path d="M 2906 2969 
L 2906 4863 
L 3481 4863 
L 3481 0 
L 2906 0 
L 2906 525 
Q 2725 213 2448 61 
Q 2172 -91 1784 -91 
Q 1150 -91 751 415 
Q 353 922 353 1747 
Q 353 2572 751 3078 
Q 1150 3584 1784 3584 
Q 2172 3584 2448 3432 
Q 2725 3281 2906 2969 
z
M 947 1747 
Q 947 1113 1208 752 
Q 1469 391 1925 391 
Q 2381 391 2643 752 
Q 2906 1113 2906 1747 
Q 2906 2381 2643 2742 
Q 2381 3103 1925 3103 
Q 1469 3103 1208 2742 
Q 947 2381 947 1747 
z
" id="DejaVuSans-64" transform="scale(0.015625)"/>
       <path d="M 3597 1894 
L 3597 1613 
L 953 1613 
Q 991 1019 1311 708 
Q 1631 397 2203 397 
Q 2534 397 2845 478 
Q 3156 559 3463 722 
L 3463 178 
Q 3153 47 2828 -22 
Q 2503 -91 2169 -91 
Q 1331 -91 842 396 
Q 353 884 353 1716 
Q 353 2575 817 3079 
Q 1281 3584 2069 3584 
Q 2775 3584 3186 3129 
Q 3597 2675 3597 1894 
z
M 3022 2063 
Q 3016 2534 2758 2815 
Q 2500 3097 2075 3097 
Q 1594 3097 1305 2825 
Q 1016 2553 972 2059 
L 3022 2063 
z
" id="DejaVuSans-65" transform="scale(0.015625)"/>
       <path d="M 3122 3366 
L 3122 2828 
Q 2878 2963 2633 3030 
Q 2388 3097 2138 3097 
Q 1578 3097 1268 2742 
Q 959 2388 959 1747 
Q 959 1106 1268 751 
Q 1578 397 2138 397 
Q 2388 397 2633 464 
Q 2878 531 3122 666 
L 3122 134 
Q 2881 22 2623 -34 
Q 2366 -91 2075 -91 
Q 1284 -91 818 406 
Q 353 903 353 1747 
Q 353 2603 823 3093 
Q 1294 3584 2113 3584 
Q 2378 3584 2631 3529 
Q 2884 3475 3122 3366 
z
" id="DejaVuSans-63" transform="scale(0.015625)"/>
      </defs>
      <use xlink:href="#DejaVuSans-50"/>
      <use x="58.552734" xlink:href="#DejaVuSans-72"/>
      <use x="97.416016" xlink:href="#DejaVuSans-6f"/>
      <use x="158.597656" xlink:href="#DejaVuSans-70"/>
      <use x="222.074219" xlink:href="#DejaVuSans-61"/>
      <use x="283.353516" xlink:href="#DejaVuSans-67"/>
      <use x="346.830078" xlink:href="#DejaVuSans-61"/>
      <use x="408.109375" xlink:href="#DejaVuSans-74"/>
      <use x="447.318359" xlink:href="#DejaVuSans-69"/>
      <use x="475.101562" xlink:href="#DejaVuSans-6f"/>
      <use x="536.283203" xlink:href="#DejaVuSans-6e"/>
      <use x="599.662109" xlink:href="#DejaVuSans-20"/>
      <use x="631.449219" xlink:href="#DejaVuSans-64"/>
      <use x="694.925781" xlink:href="#DejaVuSans-69"/>
      <use x="722.708984" xlink:href="#DejaVuSans-72"/>
      <use x="761.572266" xlink:href="#DejaVuSans-65"/>
      <use x="823.095703" xlink:href="#DejaVuSans-63"/>
      <use x="878.076172" xlink:href="#DejaVuSans-74"/>
      <use x="917.285156" xlink:href="#DejaVuSans-69"/>
      <use x="945.068359" xlink:href="#DejaVuSans-6f"/>
      <use x="1006.25" xlink:href="#DejaVuSans-6e"/>
     </g>
    </g>
   </g>
   <g id="matplotlib.axis_2">
    <g id="ytick_1">
     <g id="line2d_7">
      <defs>
       <path d="M 0 0 
L -3.5 0 
" id="m82b70b94c9" style="stroke:#000000;stroke-width:0.8;"/>
      </defs>
      <g>
       <use style="stroke:#000000;stroke-width:0.8;" x="50.14375" xlink:href="#m82b70b94c9" y="273.312"/>
      </g>
     </g>
     <g id="text_8">
      <!-- 0.00 -->
      <g transform="translate(20.878125 277.111219)scale(0.1 -0.1)">
       <use xlink:href="#DejaVuSans-30"/>
       <use x="63.623047" xlink:href="#DejaVuSans-2e"/>
       <use x="95.410156" xlink:href="#DejaVuSans-30"/>
       <use x="159.033203" xlink:href="#DejaVuSans-30"/>
      </g>
     </g>
    </g>
    <g id="ytick_2">
     <g id="line2d_8">
      <g>
       <use style="stroke:#000000;stroke-width:0.8;" x="50.14375" xlink:href="#m82b70b94c9" y="242.858843"/>
      </g>
     </g>
     <g id="text_9">
      <!-- 0.25 -->
      <g transform="translate(20.878125 246.658062)scale(0.1 -0.1)">
       <defs>
        <path d="M 691 4666 
L 3169 4666 
L 3169 4134 
L 1269 4134 
L 1269 2991 
Q 1406 3038 1543 3061 
Q 1681 3084 1819 3084 
Q 2600 3084 3056 2656 
Q 3513 2228 3513 1497 
Q 3513 744 3044 326 
Q 2575 -91 1722 -91 
Q 1428 -91 1123 -41 
Q 819 9 494 109 
L 494 744 
Q 775 591 1075 516 
Q 1375 441 1709 441 
Q 2250 441 2565 725 
Q 2881 1009 2881 1497 
Q 2881 1984 2565 2268 
Q 2250 2553 1709 2553 
Q 1456 2553 1204 2497 
Q 953 2441 691 2322 
L 691 4666 
z
" id="DejaVuSans-35" transform="scale(0.015625)"/>
       </defs>
       <use xlink:href="#DejaVuSans-30"/>
       <use x="63.623047" xlink:href="#DejaVuSans-2e"/>
       <use x="95.410156" xlink:href="#DejaVuSans-32"/>
       <use x="159.033203" xlink:href="#DejaVuSans-35"/>
      </g>
     </g>
    </g>
    <g id="ytick_3">
     <g id="line2d_9">
      <g>
       <use style="stroke:#000000;stroke-width:0.8;" x="50.14375" xlink:href="#m82b70b94c9" y="212.405687"/>
      </g>
     </g>
     <g id="text_10">
      <!-- 0.50 -->
      <g transform="translate(20.878125 216.204905)scale(0.1 -0.1)">
       <use xlink:href="#DejaVuSans-30"/>
       <use x="63.623047" xlink:href="#DejaVuSans-2e"/>
       <use x="95.410156" xlink:href="#DejaVuSans-35"/>
       <use x="159.033203" xlink:href="#DejaVuSans-30"/>
      </g>
     </g>
    </g>
    <g id="ytick_4">
     <g id="line2d_10">
      <g>
       <use style="stroke:#000000;stroke-width:0.8;" x="50.14375" xlink:href="#m82b70b94c9" y="181.95253"/>
      </g>
     </g>
     <g id="text_11">
      <!-- 0.75 -->
      <g transform="translate(20.878125 185.751749)scale(0.1 -0.1)">
       <defs>
        <path d="M 525 4666 
L 3525 4666 
L 3525 4397 
L 1831 0 
L 1172 0 
L 2766 4134 
L 525 4134 
L 525 4666 
z
" id="DejaVuSans-37" transform="scale(0.015625)"/>
       </defs>
       <use xlink:href="#DejaVuSans-30"/>
       <use x="63.623047" xlink:href="#DejaVuSans-2e"/>
       <use x="95.410156" xlink:href="#DejaVuSans-37"/>
       <use x="159.033203" xlink:href="#DejaVuSans-35"/>
      </g>
     </g>
    </g>
    <g id="ytick_5">
     <g id="line2d_11">
      <g>
       <use style="stroke:#000000;stroke-width:0.8;" x="50.14375" xlink:href="#m82b70b94c9" y="151.499373"/>
      </g>
     </g>
     <g id="text_12">
      <!-- 1.00 -->
      <g transform="translate(20.878125 155.298592)scale(0.1 -0.1)">
       <use xlink:href="#DejaVuSans-31"/>
       <use x="63.623047" xlink:href="#DejaVuSans-2e"/>
       <use x="95.410156" xlink:href="#DejaVuSans-30"/>
       <use x="159.033203" xlink:href="#DejaVuSans-30"/>
      </g>
     </g>
    </g>
    <g id="ytick_6">
     <g id="line2d_12">
      <g>
       <use style="stroke:#000000;stroke-width:0.8;" x="50.14375" xlink:href="#m82b70b94c9" y="121.046217"/>
      </g>
     </g>
     <g id="text_13">
      <!-- 1.25 -->
      <g transform="translate(20.878125 124.845435)scale(0.1 -0.1)">
       <use xlink:href="#DejaVuSans-31"/>
       <use x="63.623047" xlink:href="#DejaVuSans-2e"/>
       <use x="95.410156" xlink:href="#DejaVuSans-32"/>
       <use x="159.033203" xlink:href="#DejaVuSans-35"/>
      </g>
     </g>
    </g>
    <g id="ytick_7">
     <g id="line2d_13">
      <g>
       <use style="stroke:#000000;stroke-width:0.8;" x="50.14375" xlink:href="#m82b70b94c9" y="90.59306"/>
      </g>
     </g>
     <g id="text_14">
      <!-- 1.50 -->
      <g transform="translate(20.878125 94.392279)scale(0.1 -0.1)">
       <use xlink:href="#DejaVuSans-31"/>
       <use x="63.623047" xlink:href="#DejaVuSans-2e"/>
       <use x="95.410156" xlink:href="#DejaVuSans-35"/>
       <use x="159.033203" xlink:href="#DejaVuSans-30"/>
      </g>
     </g>
    </g>
    <g id="ytick_8">
     <g id="line2d_14">
      <g>
       <use style="stroke:#000000;stroke-width:0.8;" x="50.14375" xlink:href="#m82b70b94c9" y="60.139903"/>
      </g>
     </g>
     <g id="text_15">
      <!-- 1.75 -->
      <g transform="translate(20.878125 63.939122)scale(0.1 -0.1)">
       <use xlink:href="#DejaVuSans-31"/>
       <use x="63.623047" xlink:href="#DejaVuSans-2e"/>
       <use x="95.410156" xlink:href="#DejaVuSans-37"/>
       <use x="159.033203" xlink:href="#DejaVuSans-35"/>
      </g>
     </g>
    </g>
    <g id="ytick_9">
     <g id="line2d_15">
      <g>
       <use style="stroke:#000000;stroke-width:0.8;" x="50.14375" xlink:href="#m82b70b94c9" y="29.686746"/>
      </g>
     </g>
     <g id="text_16">
      <!-- 2.00 -->
      <g transform="translate(20.878125 33.485965)scale(0.1 -0.1)">
       <use xlink:href="#DejaVuSans-32"/>
       <use x="63.623047" xlink:href="#DejaVuSans-2e"/>
       <use x="95.410156" xlink:href="#DejaVuSans-30"/>
       <use x="159.033203" xlink:href="#DejaVuSans-30"/>
      </g>
     </g>
    </g>
    <g id="text_17">
     <!-- Probability density -->
     <g transform="translate(14.798438 186.606781)rotate(-90)scale(0.1 -0.1)">
      <defs>
       <path d="M 3116 1747 
Q 3116 2381 2855 2742 
Q 2594 3103 2138 3103 
Q 1681 3103 1420 2742 
Q 1159 2381 1159 1747 
Q 1159 1113 1420 752 
Q 1681 391 2138 391 
Q 2594 391 2855 752 
Q 3116 1113 3116 1747 
z
M 1159 2969 
Q 1341 3281 1617 3432 
Q 1894 3584 2278 3584 
Q 2916 3584 3314 3078 
Q 3713 2572 3713 1747 
Q 3713 922 3314 415 
Q 2916 -91 2278 -91 
Q 1894 -91 1617 61 
Q 1341 213 1159 525 
L 1159 0 
L 581 0 
L 581 4863 
L 1159 4863 
L 1159 2969 
z
" id="DejaVuSans-62" transform="scale(0.015625)"/>
       <path d="M 603 4863 
L 1178 4863 
L 1178 0 
L 603 0 
L 603 4863 
z
" id="DejaVuSans-6c" transform="scale(0.015625)"/>
       <path d="M 2059 -325 
Q 1816 -950 1584 -1140 
Q 1353 -1331 966 -1331 
L 506 -1331 
L 506 -850 
L 844 -850 
Q 1081 -850 1212 -737 
Q 1344 -625 1503 -206 
L 1606 56 
L 191 3500 
L 800 3500 
L 1894 763 
L 2988 3500 
L 3597 3500 
L 2059 -325 
z
" id="DejaVuSans-79" transform="scale(0.015625)"/>
       <path d="M 2834 3397 
L 2834 2853 
Q 2591 2978 2328 3040 
Q 2066 3103 1784 3103 
Q 1356 3103 1142 2972 
Q 928 2841 928 2578 
Q 928 2378 1081 2264 
Q 1234 2150 1697 2047 
L 1894 2003 
Q 2506 1872 2764 1633 
Q 3022 1394 3022 966 
Q 3022 478 2636 193 
Q 2250 -91 1575 -91 
Q 1294 -91 989 -36 
Q 684 19 347 128 
L 347 722 
Q 666 556 975 473 
Q 1284 391 1588 391 
Q 1994 391 2212 530 
Q 2431 669 2431 922 
Q 2431 1156 2273 1281 
Q 2116 1406 1581 1522 
L 1381 1569 
Q 847 1681 609 1914 
Q 372 2147 372 2553 
Q 372 3047 722 3315 
Q 1072 3584 1716 3584 
Q 2034 3584 2315 3537 
Q 2597 3491 2834 3397 
z
" id="DejaVuSans-73" transform="scale(0.015625)"/>
      </defs>
      <use xlink:href="#DejaVuSans-50"/>
      <use x="58.552734" xlink:href="#DejaVuSans-72"/>
      <use x="97.416016" xlink:href="#DejaVuSans-6f"/>
      <use x="158.597656" xlink:href="#DejaVuSans-62"/>
      <use x="222.074219" xlink:href="#DejaVuSans-61"/>
      <use x="283.353516" xlink:href="#DejaVuSans-62"/>
      <use x="346.830078" xlink:href="#DejaVuSans-69"/>
      <use x="374.613281" xlink:href="#DejaVuSans-6c"/>
      <use x="402.396484" xlink:href="#DejaVuSans-69"/>
      <use x="430.179688" xlink:href="#DejaVuSans-74"/>
      <use x="469.388672" xlink:href="#DejaVuSans-79"/>
      <use x="528.568359" xlink:href="#DejaVuSans-20"/>
      <use x="560.355469" xlink:href="#DejaVuSans-64"/>
      <use x="623.832031" xlink:href="#DejaVuSans-65"/>
      <use x="685.355469" xlink:href="#DejaVuSans-6e"/>
      <use x="748.734375" xlink:href="#DejaVuSans-73"/>
      <use x="800.833984" xlink:href="#DejaVuSans-69"/>
      <use x="828.617188" xlink:href="#DejaVuSans-74"/>
      <use x="867.826172" xlink:href="#DejaVuSans-79"/>
     </g>
    </g>
   </g>
   <g id="line2d_16">
    <path clip-path="url(#pbf56dbf3ab)" d="M 66.376477 273.312 
L 391.031023 29.686746 
L 391.031023 29.686746 
" style="fill:none;stroke:#ff7f0e;stroke-linecap:square;stroke-width:1.5;"/>
   </g>
   <g id="patch_203">
    <path d="M 50.14375 273.312 
L 50.14375 7.2 
" style="fill:none;stroke:#000000;stroke-linecap:square;stroke-linejoin:miter;stroke-width:0.8;"/>
   </g>
   <g id="patch_204">
    <path d="M 407.26375 273.312 
L 407.26375 7.2 
" style="fill:none;stroke:#000000;stroke-linecap:square;stroke-linejoin:miter;stroke-width:0.8;"/>
   </g>
   <g id="patch_205">
    <path d="M 50.14375 273.312 
L 407.26375 273.312 
" style="fill:none;stroke:#000000;stroke-linecap:square;stroke-linejoin:miter;stroke-width:0.8;"/>
   </g>
   <g id="patch_206">
    <path d="M 50.14375 7.2 
L 407.26375 7.2 
" style="fill:none;stroke:#000000;stroke-linecap:square;stroke-linejoin:miter;stroke-width:0.8;"/>
   </g>
  </g>
 </g>
 <defs>
  <clipPath id="pbf56dbf3ab">
   <rect height="266.112" width="357.12" x="50.14375" y="7.2"/>
  </clipPath>
 </defs>
</svg>
