<?xml version="1.0" encoding="utf-8" standalone="no"?>
<!DOCTYPE svg PUBLIC "-//W3C//DTD SVG 1.1//EN"
  "http://www.w3.org/Graphics/SVG/1.1/DTD/svg11.dtd">
<svg height="310.86825pt" version="1.1" viewBox="0 0 408.10125 310.86825" width="408.10125pt" xmlns="http://www.w3.org/2000/svg" xmlns:xlink="http://www.w3.org/1999/xlink">
 <metadata>
  <rdf:RDF xmlns:cc="http://creativecommons.org/ns#" xmlns:dc="http://purl.org/dc/elements/1.1/" xmlns:rdf="http://www.w3.org/1999/02/22-rdf-syntax-ns#">
   <cc:Work>
    <dc:type rdf:resource="http://purl.org/dc/dcmitype/StillImage"/>
    <dc:date>2021-06-20T00:23:28.614685</dc:date>
    <dc:format>image/svg+xml</dc:format>
    <dc:creator>
     <cc:Agent>
      <dc:title>Matplotlib v3.4.2, https://matplotlib.org/</dc:title>
     </cc:Agent>
    </dc:creator>
   </cc:Work>
  </rdf:RDF>
 </metadata>
 <defs>
  <style type="text/css">*{stroke-linecap:butt;stroke-linejoin:round;}</style>
 </defs>
 <g id="figure_1">
  <g id="patch_1">
   <path d="M 0 310.86825 
L 408.10125 310.86825 
L 408.10125 0 
L 0 0 
z
" style="fill:#ffffff;"/>
  </g>
  <g id="axes_1">
   <g id="patch_2">
    <path d="M 43.78125 273.312 
L 400.90125 273.312 
L 400.90125 7.2 
L 43.78125 7.2 
z
" style="fill:#ffffff;"/>
   </g>
   <g id="patch_3">
    <path clip-path="url(#p3dd75df862)" d="M 60.805392 273.312 
L 62.421947 273.312 
L 62.421947 270.285851 
L 60.805392 270.285851 
z
" style="fill:#1f77b4;"/>
   </g>
   <g id="patch_4">
    <path clip-path="url(#p3dd75df862)" d="M 62.421947 273.312 
L 64.038502 273.312 
L 64.038502 264.233552 
L 62.421947 264.233552 
z
" style="fill:#1f77b4;"/>
   </g>
   <g id="patch_5">
    <path clip-path="url(#p3dd75df862)" d="M 64.038502 273.312 
L 65.655058 273.312 
L 65.655058 259.694328 
L 64.038502 259.694328 
z
" style="fill:#1f77b4;"/>
   </g>
   <g id="patch_6">
    <path clip-path="url(#p3dd75df862)" d="M 65.655058 273.312 
L 67.271613 273.312 
L 67.271613 256.668179 
L 65.655058 256.668179 
z
" style="fill:#1f77b4;"/>
   </g>
   <g id="patch_7">
    <path clip-path="url(#p3dd75df862)" d="M 67.271613 273.312 
L 68.888169 273.312 
L 68.888169 257.424716 
L 67.271613 257.424716 
z
" style="fill:#1f77b4;"/>
   </g>
   <g id="patch_8">
    <path clip-path="url(#p3dd75df862)" d="M 68.888169 273.312 
L 70.504724 273.312 
L 70.504724 253.64203 
L 68.888169 253.64203 
z
" style="fill:#1f77b4;"/>
   </g>
   <g id="patch_9">
    <path clip-path="url(#p3dd75df862)" d="M 70.504724 273.312 
L 72.121279 273.312 
L 72.121279 250.615881 
L 70.504724 250.615881 
z
" style="fill:#1f77b4;"/>
   </g>
   <g id="patch_10">
    <path clip-path="url(#p3dd75df862)" d="M 72.121279 273.312 
L 73.737835 273.312 
L 73.737835 246.833194 
L 72.121279 246.833194 
z
" style="fill:#1f77b4;"/>
   </g>
   <g id="patch_11">
    <path clip-path="url(#p3dd75df862)" d="M 73.737835 273.312 
L 75.35439 273.312 
L 75.35439 233.215522 
L 73.737835 233.215522 
z
" style="fill:#1f77b4;"/>
   </g>
   <g id="patch_12">
    <path clip-path="url(#p3dd75df862)" d="M 75.35439 273.312 
L 76.970946 273.312 
L 76.970946 240.780896 
L 75.35439 240.780896 
z
" style="fill:#1f77b4;"/>
   </g>
   <g id="patch_13">
    <path clip-path="url(#p3dd75df862)" d="M 76.970946 273.312 
L 78.587501 273.312 
L 78.587501 226.406687 
L 76.970946 226.406687 
z
" style="fill:#1f77b4;"/>
   </g>
   <g id="patch_14">
    <path clip-path="url(#p3dd75df862)" d="M 78.587501 273.312 
L 80.204056 273.312 
L 80.204056 229.432836 
L 78.587501 229.432836 
z
" style="fill:#1f77b4;"/>
   </g>
   <g id="patch_15">
    <path clip-path="url(#p3dd75df862)" d="M 80.204056 273.312 
L 81.820612 273.312 
L 81.820612 227.163224 
L 80.204056 227.163224 
z
" style="fill:#1f77b4;"/>
   </g>
   <g id="patch_16">
    <path clip-path="url(#p3dd75df862)" d="M 81.820612 273.312 
L 83.437167 273.312 
L 83.437167 227.163224 
L 81.820612 227.163224 
z
" style="fill:#1f77b4;"/>
   </g>
   <g id="patch_17">
    <path clip-path="url(#p3dd75df862)" d="M 83.437167 273.312 
L 85.053723 273.312 
L 85.053723 203.710567 
L 83.437167 203.710567 
z
" style="fill:#1f77b4;"/>
   </g>
   <g id="patch_18">
    <path clip-path="url(#p3dd75df862)" d="M 85.053723 273.312 
L 86.670278 273.312 
L 86.670278 215.058627 
L 85.053723 215.058627 
z
" style="fill:#1f77b4;"/>
   </g>
   <g id="patch_19">
    <path clip-path="url(#p3dd75df862)" d="M 86.670278 273.312 
L 88.286834 273.312 
L 88.286834 212.032478 
L 86.670278 212.032478 
z
" style="fill:#1f77b4;"/>
   </g>
   <g id="patch_20">
    <path clip-path="url(#p3dd75df862)" d="M 88.286834 273.312 
L 89.903389 273.312 
L 89.903389 209.006328 
L 88.286834 209.006328 
z
" style="fill:#1f77b4;"/>
   </g>
   <g id="patch_21">
    <path clip-path="url(#p3dd75df862)" d="M 89.903389 273.312 
L 91.519944 273.312 
L 91.519944 209.006328 
L 89.903389 209.006328 
z
" style="fill:#1f77b4;"/>
   </g>
   <g id="patch_22">
    <path clip-path="url(#p3dd75df862)" d="M 91.519944 273.312 
L 93.1365 273.312 
L 93.1365 209.006328 
L 91.519944 209.006328 
z
" style="fill:#1f77b4;"/>
   </g>
   <g id="patch_23">
    <path clip-path="url(#p3dd75df862)" d="M 93.1365 273.312 
L 94.753055 273.312 
L 94.753055 208.249791 
L 93.1365 208.249791 
z
" style="fill:#1f77b4;"/>
   </g>
   <g id="patch_24">
    <path clip-path="url(#p3dd75df862)" d="M 94.753055 273.312 
L 96.369611 273.312 
L 96.369611 175.718687 
L 94.753055 175.718687 
z
" style="fill:#1f77b4;"/>
   </g>
   <g id="patch_25">
    <path clip-path="url(#p3dd75df862)" d="M 96.369611 273.312 
L 97.986166 273.312 
L 97.986166 183.28406 
L 96.369611 183.28406 
z
" style="fill:#1f77b4;"/>
   </g>
   <g id="patch_26">
    <path clip-path="url(#p3dd75df862)" d="M 97.986166 273.312 
L 99.602721 273.312 
L 99.602721 187.823284 
L 97.986166 187.823284 
z
" style="fill:#1f77b4;"/>
   </g>
   <g id="patch_27">
    <path clip-path="url(#p3dd75df862)" d="M 99.602721 273.312 
L 101.219277 273.312 
L 101.219277 184.797134 
L 99.602721 184.797134 
z
" style="fill:#1f77b4;"/>
   </g>
   <g id="patch_28">
    <path clip-path="url(#p3dd75df862)" d="M 101.219277 273.312 
L 102.835832 273.312 
L 102.835832 171.179463 
L 101.219277 171.179463 
z
" style="fill:#1f77b4;"/>
   </g>
   <g id="patch_29">
    <path clip-path="url(#p3dd75df862)" d="M 102.835832 273.312 
L 104.452388 273.312 
L 104.452388 179.501373 
L 102.835832 179.501373 
z
" style="fill:#1f77b4;"/>
   </g>
   <g id="patch_30">
    <path clip-path="url(#p3dd75df862)" d="M 104.452388 273.312 
L 106.068943 273.312 
L 106.068943 164.370627 
L 104.452388 164.370627 
z
" style="fill:#1f77b4;"/>
   </g>
   <g id="patch_31">
    <path clip-path="url(#p3dd75df862)" d="M 106.068943 273.312 
L 107.685498 273.312 
L 107.685498 177.231761 
L 106.068943 177.231761 
z
" style="fill:#1f77b4;"/>
   </g>
   <g id="patch_32">
    <path clip-path="url(#p3dd75df862)" d="M 107.685498 273.312 
L 109.302054 273.312 
L 109.302054 173.449075 
L 107.685498 173.449075 
z
" style="fill:#1f77b4;"/>
   </g>
   <g id="patch_33">
    <path clip-path="url(#p3dd75df862)" d="M 109.302054 273.312 
L 110.918609 273.312 
L 110.918609 157.561791 
L 109.302054 157.561791 
z
" style="fill:#1f77b4;"/>
   </g>
   <g id="patch_34">
    <path clip-path="url(#p3dd75df862)" d="M 110.918609 273.312 
L 112.535165 273.312 
L 112.535165 149.996418 
L 110.918609 149.996418 
z
" style="fill:#1f77b4;"/>
   </g>
   <g id="patch_35">
    <path clip-path="url(#p3dd75df862)" d="M 112.535165 273.312 
L 114.15172 273.312 
L 114.15172 149.996418 
L 112.535165 149.996418 
z
" style="fill:#1f77b4;"/>
   </g>
   <g id="patch_36">
    <path clip-path="url(#p3dd75df862)" d="M 114.15172 273.312 
L 115.768275 273.312 
L 115.768275 137.891821 
L 114.15172 137.891821 
z
" style="fill:#1f77b4;"/>
   </g>
   <g id="patch_37">
    <path clip-path="url(#p3dd75df862)" d="M 115.768275 273.312 
L 117.384831 273.312 
L 117.384831 154.535642 
L 115.768275 154.535642 
z
" style="fill:#1f77b4;"/>
   </g>
   <g id="patch_38">
    <path clip-path="url(#p3dd75df862)" d="M 117.384831 273.312 
L 119.001386 273.312 
L 119.001386 153.022567 
L 117.384831 153.022567 
z
" style="fill:#1f77b4;"/>
   </g>
   <g id="patch_39">
    <path clip-path="url(#p3dd75df862)" d="M 119.001386 273.312 
L 120.617942 273.312 
L 120.617942 143.944119 
L 119.001386 143.944119 
z
" style="fill:#1f77b4;"/>
   </g>
   <g id="patch_40">
    <path clip-path="url(#p3dd75df862)" d="M 120.617942 273.312 
L 122.234497 273.312 
L 122.234497 153.022567 
L 120.617942 153.022567 
z
" style="fill:#1f77b4;"/>
   </g>
   <g id="patch_41">
    <path clip-path="url(#p3dd75df862)" d="M 122.234497 273.312 
L 123.851053 273.312 
L 123.851053 132.59606 
L 122.234497 132.59606 
z
" style="fill:#1f77b4;"/>
   </g>
   <g id="patch_42">
    <path clip-path="url(#p3dd75df862)" d="M 123.851053 273.312 
L 125.467608 273.312 
L 125.467608 124.274149 
L 123.851053 124.274149 
z
" style="fill:#1f77b4;"/>
   </g>
   <g id="patch_43">
    <path clip-path="url(#p3dd75df862)" d="M 125.467608 273.312 
L 127.084163 273.312 
L 127.084163 134.109134 
L 125.467608 134.109134 
z
" style="fill:#1f77b4;"/>
   </g>
   <g id="patch_44">
    <path clip-path="url(#p3dd75df862)" d="M 127.084163 273.312 
L 128.700719 273.312 
L 128.700719 123.517612 
L 127.084163 123.517612 
z
" style="fill:#1f77b4;"/>
   </g>
   <g id="patch_45">
    <path clip-path="url(#p3dd75df862)" d="M 128.700719 273.312 
L 130.317274 273.312 
L 130.317274 106.117254 
L 128.700719 106.117254 
z
" style="fill:#1f77b4;"/>
   </g>
   <g id="patch_46">
    <path clip-path="url(#p3dd75df862)" d="M 130.317274 273.312 
L 131.93383 273.312 
L 131.93383 127.300299 
L 130.317274 127.300299 
z
" style="fill:#1f77b4;"/>
   </g>
   <g id="patch_47">
    <path clip-path="url(#p3dd75df862)" d="M 131.93383 273.312 
L 133.550385 273.312 
L 133.550385 104.604179 
L 131.93383 104.604179 
z
" style="fill:#1f77b4;"/>
   </g>
   <g id="patch_48">
    <path clip-path="url(#p3dd75df862)" d="M 133.550385 273.312 
L 135.16694 273.312 
L 135.16694 133.352597 
L 133.550385 133.352597 
z
" style="fill:#1f77b4;"/>
   </g>
   <g id="patch_49">
    <path clip-path="url(#p3dd75df862)" d="M 135.16694 273.312 
L 136.783496 273.312 
L 136.783496 117.465313 
L 135.16694 117.465313 
z
" style="fill:#1f77b4;"/>
   </g>
   <g id="patch_50">
    <path clip-path="url(#p3dd75df862)" d="M 136.783496 273.312 
L 138.400051 273.312 
L 138.400051 130.326448 
L 136.783496 130.326448 
z
" style="fill:#1f77b4;"/>
   </g>
   <g id="patch_51">
    <path clip-path="url(#p3dd75df862)" d="M 138.400051 273.312 
L 140.016607 273.312 
L 140.016607 108.386866 
L 138.400051 108.386866 
z
" style="fill:#1f77b4;"/>
   </g>
   <g id="patch_52">
    <path clip-path="url(#p3dd75df862)" d="M 140.016607 273.312 
L 141.633162 273.312 
L 141.633162 107.630328 
L 140.016607 107.630328 
z
" style="fill:#1f77b4;"/>
   </g>
   <g id="patch_53">
    <path clip-path="url(#p3dd75df862)" d="M 141.633162 273.312 
L 143.249717 273.312 
L 143.249717 117.465313 
L 141.633162 117.465313 
z
" style="fill:#1f77b4;"/>
   </g>
   <g id="patch_54">
    <path clip-path="url(#p3dd75df862)" d="M 143.249717 273.312 
L 144.866273 273.312 
L 144.866273 93.256119 
L 143.249717 93.256119 
z
" style="fill:#1f77b4;"/>
   </g>
   <g id="patch_55">
    <path clip-path="url(#p3dd75df862)" d="M 144.866273 273.312 
L 146.482828 273.312 
L 146.482828 91.743045 
L 144.866273 91.743045 
z
" style="fill:#1f77b4;"/>
   </g>
   <g id="patch_56">
    <path clip-path="url(#p3dd75df862)" d="M 146.482828 273.312 
L 148.099384 273.312 
L 148.099384 89.473433 
L 146.482828 89.473433 
z
" style="fill:#1f77b4;"/>
   </g>
   <g id="patch_57">
    <path clip-path="url(#p3dd75df862)" d="M 148.099384 273.312 
L 149.715939 273.312 
L 149.715939 87.203821 
L 148.099384 87.203821 
z
" style="fill:#1f77b4;"/>
   </g>
   <g id="patch_58">
    <path clip-path="url(#p3dd75df862)" d="M 149.715939 273.312 
L 151.332494 273.312 
L 151.332494 101.57803 
L 149.715939 101.57803 
z
" style="fill:#1f77b4;"/>
   </g>
   <g id="patch_59">
    <path clip-path="url(#p3dd75df862)" d="M 151.332494 273.312 
L 152.94905 273.312 
L 152.94905 94.769194 
L 151.332494 94.769194 
z
" style="fill:#1f77b4;"/>
   </g>
   <g id="patch_60">
    <path clip-path="url(#p3dd75df862)" d="M 152.94905 273.312 
L 154.565605 273.312 
L 154.565605 101.57803 
L 152.94905 101.57803 
z
" style="fill:#1f77b4;"/>
   </g>
   <g id="patch_61">
    <path clip-path="url(#p3dd75df862)" d="M 154.565605 273.312 
L 156.182161 273.312 
L 156.182161 83.421134 
L 154.565605 83.421134 
z
" style="fill:#1f77b4;"/>
   </g>
   <g id="patch_62">
    <path clip-path="url(#p3dd75df862)" d="M 156.182161 273.312 
L 157.798716 273.312 
L 157.798716 81.151522 
L 156.182161 81.151522 
z
" style="fill:#1f77b4;"/>
   </g>
   <g id="patch_63">
    <path clip-path="url(#p3dd75df862)" d="M 157.798716 273.312 
L 159.415271 273.312 
L 159.415271 75.855761 
L 157.798716 75.855761 
z
" style="fill:#1f77b4;"/>
   </g>
   <g id="patch_64">
    <path clip-path="url(#p3dd75df862)" d="M 159.415271 273.312 
L 161.031827 273.312 
L 161.031827 86.447284 
L 159.415271 86.447284 
z
" style="fill:#1f77b4;"/>
   </g>
   <g id="patch_65">
    <path clip-path="url(#p3dd75df862)" d="M 161.031827 273.312 
L 162.648382 273.312 
L 162.648382 65.264239 
L 161.031827 65.264239 
z
" style="fill:#1f77b4;"/>
   </g>
   <g id="patch_66">
    <path clip-path="url(#p3dd75df862)" d="M 162.648382 273.312 
L 164.264938 273.312 
L 164.264938 75.855761 
L 162.648382 75.855761 
z
" style="fill:#1f77b4;"/>
   </g>
   <g id="patch_67">
    <path clip-path="url(#p3dd75df862)" d="M 164.264938 273.312 
L 165.881493 273.312 
L 165.881493 83.421134 
L 164.264938 83.421134 
z
" style="fill:#1f77b4;"/>
   </g>
   <g id="patch_68">
    <path clip-path="url(#p3dd75df862)" d="M 165.881493 273.312 
L 167.498049 273.312 
L 167.498049 74.342687 
L 165.881493 74.342687 
z
" style="fill:#1f77b4;"/>
   </g>
   <g id="patch_69">
    <path clip-path="url(#p3dd75df862)" d="M 167.498049 273.312 
L 169.114604 273.312 
L 169.114604 74.342687 
L 167.498049 74.342687 
z
" style="fill:#1f77b4;"/>
   </g>
   <g id="patch_70">
    <path clip-path="url(#p3dd75df862)" d="M 169.114604 273.312 
L 170.731159 273.312 
L 170.731159 72.073075 
L 169.114604 72.073075 
z
" style="fill:#1f77b4;"/>
   </g>
   <g id="patch_71">
    <path clip-path="url(#p3dd75df862)" d="M 170.731159 273.312 
L 172.347715 273.312 
L 172.347715 68.290388 
L 170.731159 68.290388 
z
" style="fill:#1f77b4;"/>
   </g>
   <g id="patch_72">
    <path clip-path="url(#p3dd75df862)" d="M 172.347715 273.312 
L 173.96427 273.312 
L 173.96427 61.481552 
L 172.347715 61.481552 
z
" style="fill:#1f77b4;"/>
   </g>
   <g id="patch_73">
    <path clip-path="url(#p3dd75df862)" d="M 173.96427 273.312 
L 175.580826 273.312 
L 175.580826 65.264239 
L 173.96427 65.264239 
z
" style="fill:#1f77b4;"/>
   </g>
   <g id="patch_74">
    <path clip-path="url(#p3dd75df862)" d="M 175.580826 273.312 
L 177.197381 273.312 
L 177.197381 58.455403 
L 175.580826 58.455403 
z
" style="fill:#1f77b4;"/>
   </g>
   <g id="patch_75">
    <path clip-path="url(#p3dd75df862)" d="M 177.197381 273.312 
L 178.813936 273.312 
L 178.813936 62.994627 
L 177.197381 62.994627 
z
" style="fill:#1f77b4;"/>
   </g>
   <g id="patch_76">
    <path clip-path="url(#p3dd75df862)" d="M 178.813936 273.312 
L 180.430492 273.312 
L 180.430492 56.942328 
L 178.813936 56.942328 
z
" style="fill:#1f77b4;"/>
   </g>
   <g id="patch_77">
    <path clip-path="url(#p3dd75df862)" d="M 180.430492 273.312 
L 182.047047 273.312 
L 182.047047 61.481552 
L 180.430492 61.481552 
z
" style="fill:#1f77b4;"/>
   </g>
   <g id="patch_78">
    <path clip-path="url(#p3dd75df862)" d="M 182.047047 273.312 
L 183.663603 273.312 
L 183.663603 46.350806 
L 182.047047 46.350806 
z
" style="fill:#1f77b4;"/>
   </g>
   <g id="patch_79">
    <path clip-path="url(#p3dd75df862)" d="M 183.663603 273.312 
L 185.280158 273.312 
L 185.280158 62.994627 
L 183.663603 62.994627 
z
" style="fill:#1f77b4;"/>
   </g>
   <g id="patch_80">
    <path clip-path="url(#p3dd75df862)" d="M 185.280158 273.312 
L 186.896713 273.312 
L 186.896713 39.54197 
L 185.280158 39.54197 
z
" style="fill:#1f77b4;"/>
   </g>
   <g id="patch_81">
    <path clip-path="url(#p3dd75df862)" d="M 186.896713 273.312 
L 188.513269 273.312 
L 188.513269 56.185791 
L 186.896713 56.185791 
z
" style="fill:#1f77b4;"/>
   </g>
   <g id="patch_82">
    <path clip-path="url(#p3dd75df862)" d="M 188.513269 273.312 
L 190.129824 273.312 
L 190.129824 51.646567 
L 188.513269 51.646567 
z
" style="fill:#1f77b4;"/>
   </g>
   <g id="patch_83">
    <path clip-path="url(#p3dd75df862)" d="M 190.129824 273.312 
L 191.74638 273.312 
L 191.74638 51.646567 
L 190.129824 51.646567 
z
" style="fill:#1f77b4;"/>
   </g>
   <g id="patch_84">
    <path clip-path="url(#p3dd75df862)" d="M 191.74638 273.312 
L 193.362935 273.312 
L 193.362935 43.324657 
L 191.74638 43.324657 
z
" style="fill:#1f77b4;"/>
   </g>
   <g id="patch_85">
    <path clip-path="url(#p3dd75df862)" d="M 193.362935 273.312 
L 194.97949 273.312 
L 194.97949 36.515821 
L 193.362935 36.515821 
z
" style="fill:#1f77b4;"/>
   </g>
   <g id="patch_86">
    <path clip-path="url(#p3dd75df862)" d="M 194.97949 273.312 
L 196.596046 273.312 
L 196.596046 40.298507 
L 194.97949 40.298507 
z
" style="fill:#1f77b4;"/>
   </g>
   <g id="patch_87">
    <path clip-path="url(#p3dd75df862)" d="M 196.596046 273.312 
L 198.212601 273.312 
L 198.212601 46.350806 
L 196.596046 46.350806 
z
" style="fill:#1f77b4;"/>
   </g>
   <g id="patch_88">
    <path clip-path="url(#p3dd75df862)" d="M 198.212601 273.312 
L 199.829157 273.312 
L 199.829157 56.185791 
L 198.212601 56.185791 
z
" style="fill:#1f77b4;"/>
   </g>
   <g id="patch_89">
    <path clip-path="url(#p3dd75df862)" d="M 199.829157 273.312 
L 201.445712 273.312 
L 201.445712 36.515821 
L 199.829157 36.515821 
z
" style="fill:#1f77b4;"/>
   </g>
   <g id="patch_90">
    <path clip-path="url(#p3dd75df862)" d="M 201.445712 273.312 
L 203.062267 273.312 
L 203.062267 38.028896 
L 201.445712 38.028896 
z
" style="fill:#1f77b4;"/>
   </g>
   <g id="patch_91">
    <path clip-path="url(#p3dd75df862)" d="M 203.062267 273.312 
L 204.678823 273.312 
L 204.678823 19.872 
L 203.062267 19.872 
z
" style="fill:#1f77b4;"/>
   </g>
   <g id="patch_92">
    <path clip-path="url(#p3dd75df862)" d="M 204.678823 273.312 
L 206.295378 273.312 
L 206.295378 35.002746 
L 204.678823 35.002746 
z
" style="fill:#1f77b4;"/>
   </g>
   <g id="patch_93">
    <path clip-path="url(#p3dd75df862)" d="M 206.295378 273.312 
L 207.911934 273.312 
L 207.911934 53.159642 
L 206.295378 53.159642 
z
" style="fill:#1f77b4;"/>
   </g>
   <g id="patch_94">
    <path clip-path="url(#p3dd75df862)" d="M 207.911934 273.312 
L 209.528489 273.312 
L 209.528489 48.620418 
L 207.911934 48.620418 
z
" style="fill:#1f77b4;"/>
   </g>
   <g id="patch_95">
    <path clip-path="url(#p3dd75df862)" d="M 209.528489 273.312 
L 211.145045 273.312 
L 211.145045 54.672716 
L 209.528489 54.672716 
z
" style="fill:#1f77b4;"/>
   </g>
   <g id="patch_96">
    <path clip-path="url(#p3dd75df862)" d="M 211.145045 273.312 
L 212.7616 273.312 
L 212.7616 41.055045 
L 211.145045 41.055045 
z
" style="fill:#1f77b4;"/>
   </g>
   <g id="patch_97">
    <path clip-path="url(#p3dd75df862)" d="M 212.7616 273.312 
L 214.378155 273.312 
L 214.378155 35.002746 
L 212.7616 35.002746 
z
" style="fill:#1f77b4;"/>
   </g>
   <g id="patch_98">
    <path clip-path="url(#p3dd75df862)" d="M 214.378155 273.312 
L 215.994711 273.312 
L 215.994711 32.733134 
L 214.378155 32.733134 
z
" style="fill:#1f77b4;"/>
   </g>
   <g id="patch_99">
    <path clip-path="url(#p3dd75df862)" d="M 215.994711 273.312 
L 217.611266 273.312 
L 217.611266 38.785433 
L 215.994711 38.785433 
z
" style="fill:#1f77b4;"/>
   </g>
   <g id="patch_100">
    <path clip-path="url(#p3dd75df862)" d="M 217.611266 273.312 
L 219.227822 273.312 
L 219.227822 24.411224 
L 217.611266 24.411224 
z
" style="fill:#1f77b4;"/>
   </g>
   <g id="patch_101">
    <path clip-path="url(#p3dd75df862)" d="M 219.227822 273.312 
L 220.844377 273.312 
L 220.844377 24.411224 
L 219.227822 24.411224 
z
" style="fill:#1f77b4;"/>
   </g>
   <g id="patch_102">
    <path clip-path="url(#p3dd75df862)" d="M 220.844377 273.312 
L 222.460932 273.312 
L 222.460932 25.167761 
L 220.844377 25.167761 
z
" style="fill:#1f77b4;"/>
   </g>
   <g id="patch_103">
    <path clip-path="url(#p3dd75df862)" d="M 222.460932 273.312 
L 224.077488 273.312 
L 224.077488 39.54197 
L 222.460932 39.54197 
z
" style="fill:#1f77b4;"/>
   </g>
   <g id="patch_104">
    <path clip-path="url(#p3dd75df862)" d="M 224.077488 273.312 
L 225.694043 273.312 
L 225.694043 32.733134 
L 224.077488 32.733134 
z
" style="fill:#1f77b4;"/>
   </g>
   <g id="patch_105">
    <path clip-path="url(#p3dd75df862)" d="M 225.694043 273.312 
L 227.310599 273.312 
L 227.310599 48.620418 
L 225.694043 48.620418 
z
" style="fill:#1f77b4;"/>
   </g>
   <g id="patch_106">
    <path clip-path="url(#p3dd75df862)" d="M 227.310599 273.312 
L 228.927154 273.312 
L 228.927154 36.515821 
L 227.310599 36.515821 
z
" style="fill:#1f77b4;"/>
   </g>
   <g id="patch_107">
    <path clip-path="url(#p3dd75df862)" d="M 228.927154 273.312 
L 230.543709 273.312 
L 230.543709 41.811582 
L 228.927154 41.811582 
z
" style="fill:#1f77b4;"/>
   </g>
   <g id="patch_108">
    <path clip-path="url(#p3dd75df862)" d="M 230.543709 273.312 
L 232.160265 273.312 
L 232.160265 31.976597 
L 230.543709 31.976597 
z
" style="fill:#1f77b4;"/>
   </g>
   <g id="patch_109">
    <path clip-path="url(#p3dd75df862)" d="M 232.160265 273.312 
L 233.77682 273.312 
L 233.77682 35.002746 
L 232.160265 35.002746 
z
" style="fill:#1f77b4;"/>
   </g>
   <g id="patch_110">
    <path clip-path="url(#p3dd75df862)" d="M 233.77682 273.312 
L 235.393376 273.312 
L 235.393376 29.706985 
L 233.77682 29.706985 
z
" style="fill:#1f77b4;"/>
   </g>
   <g id="patch_111">
    <path clip-path="url(#p3dd75df862)" d="M 235.393376 273.312 
L 237.009931 273.312 
L 237.009931 31.976597 
L 235.393376 31.976597 
z
" style="fill:#1f77b4;"/>
   </g>
   <g id="patch_112">
    <path clip-path="url(#p3dd75df862)" d="M 237.009931 273.312 
L 238.626486 273.312 
L 238.626486 50.133493 
L 237.009931 50.133493 
z
" style="fill:#1f77b4;"/>
   </g>
   <g id="patch_113">
    <path clip-path="url(#p3dd75df862)" d="M 238.626486 273.312 
L 240.243042 273.312 
L 240.243042 39.54197 
L 238.626486 39.54197 
z
" style="fill:#1f77b4;"/>
   </g>
   <g id="patch_114">
    <path clip-path="url(#p3dd75df862)" d="M 240.243042 273.312 
L 241.859597 273.312 
L 241.859597 56.185791 
L 240.243042 56.185791 
z
" style="fill:#1f77b4;"/>
   </g>
   <g id="patch_115">
    <path clip-path="url(#p3dd75df862)" d="M 241.859597 273.312 
L 243.476153 273.312 
L 243.476153 33.489672 
L 241.859597 33.489672 
z
" style="fill:#1f77b4;"/>
   </g>
   <g id="patch_116">
    <path clip-path="url(#p3dd75df862)" d="M 243.476153 273.312 
L 245.092708 273.312 
L 245.092708 72.073075 
L 243.476153 72.073075 
z
" style="fill:#1f77b4;"/>
   </g>
   <g id="patch_117">
    <path clip-path="url(#p3dd75df862)" d="M 245.092708 273.312 
L 246.709263 273.312 
L 246.709263 33.489672 
L 245.092708 33.489672 
z
" style="fill:#1f77b4;"/>
   </g>
   <g id="patch_118">
    <path clip-path="url(#p3dd75df862)" d="M 246.709263 273.312 
L 248.325819 273.312 
L 248.325819 28.19391 
L 246.709263 28.19391 
z
" style="fill:#1f77b4;"/>
   </g>
   <g id="patch_119">
    <path clip-path="url(#p3dd75df862)" d="M 248.325819 273.312 
L 249.942374 273.312 
L 249.942374 68.290388 
L 248.325819 68.290388 
z
" style="fill:#1f77b4;"/>
   </g>
   <g id="patch_120">
    <path clip-path="url(#p3dd75df862)" d="M 249.942374 273.312 
L 251.55893 273.312 
L 251.55893 28.950448 
L 249.942374 28.950448 
z
" style="fill:#1f77b4;"/>
   </g>
   <g id="patch_121">
    <path clip-path="url(#p3dd75df862)" d="M 251.55893 273.312 
L 253.175485 273.312 
L 253.175485 58.455403 
L 251.55893 58.455403 
z
" style="fill:#1f77b4;"/>
   </g>
   <g id="patch_122">
    <path clip-path="url(#p3dd75df862)" d="M 253.175485 273.312 
L 254.792041 273.312 
L 254.792041 61.481552 
L 253.175485 61.481552 
z
" style="fill:#1f77b4;"/>
   </g>
   <g id="patch_123">
    <path clip-path="url(#p3dd75df862)" d="M 254.792041 273.312 
L 256.408596 273.312 
L 256.408596 61.481552 
L 254.792041 61.481552 
z
" style="fill:#1f77b4;"/>
   </g>
   <g id="patch_124">
    <path clip-path="url(#p3dd75df862)" d="M 256.408596 273.312 
L 258.025151 273.312 
L 258.025151 59.968478 
L 256.408596 59.968478 
z
" style="fill:#1f77b4;"/>
   </g>
   <g id="patch_125">
    <path clip-path="url(#p3dd75df862)" d="M 258.025151 273.312 
L 259.641707 273.312 
L 259.641707 48.620418 
L 258.025151 48.620418 
z
" style="fill:#1f77b4;"/>
   </g>
   <g id="patch_126">
    <path clip-path="url(#p3dd75df862)" d="M 259.641707 273.312 
L 261.258262 273.312 
L 261.258262 33.489672 
L 259.641707 33.489672 
z
" style="fill:#1f77b4;"/>
   </g>
   <g id="patch_127">
    <path clip-path="url(#p3dd75df862)" d="M 261.258262 273.312 
L 262.874818 273.312 
L 262.874818 38.785433 
L 261.258262 38.785433 
z
" style="fill:#1f77b4;"/>
   </g>
   <g id="patch_128">
    <path clip-path="url(#p3dd75df862)" d="M 262.874818 273.312 
L 264.491373 273.312 
L 264.491373 26.680836 
L 262.874818 26.680836 
z
" style="fill:#1f77b4;"/>
   </g>
   <g id="patch_129">
    <path clip-path="url(#p3dd75df862)" d="M 264.491373 273.312 
L 266.107928 273.312 
L 266.107928 51.646567 
L 264.491373 51.646567 
z
" style="fill:#1f77b4;"/>
   </g>
   <g id="patch_130">
    <path clip-path="url(#p3dd75df862)" d="M 266.107928 273.312 
L 267.724484 273.312 
L 267.724484 41.055045 
L 266.107928 41.055045 
z
" style="fill:#1f77b4;"/>
   </g>
   <g id="patch_131">
    <path clip-path="url(#p3dd75df862)" d="M 267.724484 273.312 
L 269.341039 273.312 
L 269.341039 58.455403 
L 267.724484 58.455403 
z
" style="fill:#1f77b4;"/>
   </g>
   <g id="patch_132">
    <path clip-path="url(#p3dd75df862)" d="M 269.341039 273.312 
L 270.957595 273.312 
L 270.957595 84.177672 
L 269.341039 84.177672 
z
" style="fill:#1f77b4;"/>
   </g>
   <g id="patch_133">
    <path clip-path="url(#p3dd75df862)" d="M 270.957595 273.312 
L 272.57415 273.312 
L 272.57415 66.777313 
L 270.957595 66.777313 
z
" style="fill:#1f77b4;"/>
   </g>
   <g id="patch_134">
    <path clip-path="url(#p3dd75df862)" d="M 272.57415 273.312 
L 274.190705 273.312 
L 274.190705 82.664597 
L 272.57415 82.664597 
z
" style="fill:#1f77b4;"/>
   </g>
   <g id="patch_135">
    <path clip-path="url(#p3dd75df862)" d="M 274.190705 273.312 
L 275.807261 273.312 
L 275.807261 73.586149 
L 274.190705 73.586149 
z
" style="fill:#1f77b4;"/>
   </g>
   <g id="patch_136">
    <path clip-path="url(#p3dd75df862)" d="M 275.807261 273.312 
L 277.423816 273.312 
L 277.423816 53.916179 
L 275.807261 53.916179 
z
" style="fill:#1f77b4;"/>
   </g>
   <g id="patch_137">
    <path clip-path="url(#p3dd75df862)" d="M 277.423816 273.312 
L 279.040372 273.312 
L 279.040372 77.368836 
L 277.423816 77.368836 
z
" style="fill:#1f77b4;"/>
   </g>
   <g id="patch_138">
    <path clip-path="url(#p3dd75df862)" d="M 279.040372 273.312 
L 280.656927 273.312 
L 280.656927 67.533851 
L 279.040372 67.533851 
z
" style="fill:#1f77b4;"/>
   </g>
   <g id="patch_139">
    <path clip-path="url(#p3dd75df862)" d="M 280.656927 273.312 
L 282.273482 273.312 
L 282.273482 87.960358 
L 280.656927 87.960358 
z
" style="fill:#1f77b4;"/>
   </g>
   <g id="patch_140">
    <path clip-path="url(#p3dd75df862)" d="M 282.273482 273.312 
L 283.890038 273.312 
L 283.890038 82.664597 
L 282.273482 82.664597 
z
" style="fill:#1f77b4;"/>
   </g>
   <g id="patch_141">
    <path clip-path="url(#p3dd75df862)" d="M 283.890038 273.312 
L 285.506593 273.312 
L 285.506593 72.073075 
L 283.890038 72.073075 
z
" style="fill:#1f77b4;"/>
   </g>
   <g id="patch_142">
    <path clip-path="url(#p3dd75df862)" d="M 285.506593 273.312 
L 287.123149 273.312 
L 287.123149 84.934209 
L 285.506593 84.934209 
z
" style="fill:#1f77b4;"/>
   </g>
   <g id="patch_143">
    <path clip-path="url(#p3dd75df862)" d="M 287.123149 273.312 
L 288.739704 273.312 
L 288.739704 100.821493 
L 287.123149 100.821493 
z
" style="fill:#1f77b4;"/>
   </g>
   <g id="patch_144">
    <path clip-path="url(#p3dd75df862)" d="M 288.739704 273.312 
L 290.35626 273.312 
L 290.35626 84.934209 
L 288.739704 84.934209 
z
" style="fill:#1f77b4;"/>
   </g>
   <g id="patch_145">
    <path clip-path="url(#p3dd75df862)" d="M 290.35626 273.312 
L 291.972815 273.312 
L 291.972815 85.690746 
L 290.35626 85.690746 
z
" style="fill:#1f77b4;"/>
   </g>
   <g id="patch_146">
    <path clip-path="url(#p3dd75df862)" d="M 291.972815 273.312 
L 293.58937 273.312 
L 293.58937 84.177672 
L 291.972815 84.177672 
z
" style="fill:#1f77b4;"/>
   </g>
   <g id="patch_147">
    <path clip-path="url(#p3dd75df862)" d="M 293.58937 273.312 
L 295.205926 273.312 
L 295.205926 86.447284 
L 293.58937 86.447284 
z
" style="fill:#1f77b4;"/>
   </g>
   <g id="patch_148">
    <path clip-path="url(#p3dd75df862)" d="M 295.205926 273.312 
L 296.822481 273.312 
L 296.822481 84.177672 
L 295.205926 84.177672 
z
" style="fill:#1f77b4;"/>
   </g>
   <g id="patch_149">
    <path clip-path="url(#p3dd75df862)" d="M 296.822481 273.312 
L 298.439037 273.312 
L 298.439037 90.986507 
L 296.822481 90.986507 
z
" style="fill:#1f77b4;"/>
   </g>
   <g id="patch_150">
    <path clip-path="url(#p3dd75df862)" d="M 298.439037 273.312 
L 300.055592 273.312 
L 300.055592 80.394985 
L 298.439037 80.394985 
z
" style="fill:#1f77b4;"/>
   </g>
   <g id="patch_151">
    <path clip-path="url(#p3dd75df862)" d="M 300.055592 273.312 
L 301.672147 273.312 
L 301.672147 108.386866 
L 300.055592 108.386866 
z
" style="fill:#1f77b4;"/>
   </g>
   <g id="patch_152">
    <path clip-path="url(#p3dd75df862)" d="M 301.672147 273.312 
L 303.288703 273.312 
L 303.288703 115.195701 
L 301.672147 115.195701 
z
" style="fill:#1f77b4;"/>
   </g>
   <g id="patch_153">
    <path clip-path="url(#p3dd75df862)" d="M 303.288703 273.312 
L 304.905258 273.312 
L 304.905258 90.22997 
L 303.288703 90.22997 
z
" style="fill:#1f77b4;"/>
   </g>
   <g id="patch_154">
    <path clip-path="url(#p3dd75df862)" d="M 304.905258 273.312 
L 306.521814 273.312 
L 306.521814 116.708776 
L 304.905258 116.708776 
z
" style="fill:#1f77b4;"/>
   </g>
   <g id="patch_155">
    <path clip-path="url(#p3dd75df862)" d="M 306.521814 273.312 
L 308.138369 273.312 
L 308.138369 118.221851 
L 306.521814 118.221851 
z
" style="fill:#1f77b4;"/>
   </g>
   <g id="patch_156">
    <path clip-path="url(#p3dd75df862)" d="M 308.138369 273.312 
L 309.754924 273.312 
L 309.754924 123.517612 
L 308.138369 123.517612 
z
" style="fill:#1f77b4;"/>
   </g>
   <g id="patch_157">
    <path clip-path="url(#p3dd75df862)" d="M 309.754924 273.312 
L 311.37148 273.312 
L 311.37148 128.813373 
L 309.754924 128.813373 
z
" style="fill:#1f77b4;"/>
   </g>
   <g id="patch_158">
    <path clip-path="url(#p3dd75df862)" d="M 311.37148 273.312 
L 312.988035 273.312 
L 312.988035 107.630328 
L 311.37148 107.630328 
z
" style="fill:#1f77b4;"/>
   </g>
   <g id="patch_159">
    <path clip-path="url(#p3dd75df862)" d="M 312.988035 273.312 
L 314.604591 273.312 
L 314.604591 140.91797 
L 312.988035 140.91797 
z
" style="fill:#1f77b4;"/>
   </g>
   <g id="patch_160">
    <path clip-path="url(#p3dd75df862)" d="M 314.604591 273.312 
L 316.221146 273.312 
L 316.221146 121.248 
L 314.604591 121.248 
z
" style="fill:#1f77b4;"/>
   </g>
   <g id="patch_161">
    <path clip-path="url(#p3dd75df862)" d="M 316.221146 273.312 
L 317.837701 273.312 
L 317.837701 125.787224 
L 316.221146 125.787224 
z
" style="fill:#1f77b4;"/>
   </g>
   <g id="patch_162">
    <path clip-path="url(#p3dd75df862)" d="M 317.837701 273.312 
L 319.454257 273.312 
L 319.454257 142.431045 
L 317.837701 142.431045 
z
" style="fill:#1f77b4;"/>
   </g>
   <g id="patch_163">
    <path clip-path="url(#p3dd75df862)" d="M 319.454257 273.312 
L 321.070812 273.312 
L 321.070812 119.734925 
L 319.454257 119.734925 
z
" style="fill:#1f77b4;"/>
   </g>
   <g id="patch_164">
    <path clip-path="url(#p3dd75df862)" d="M 321.070812 273.312 
L 322.687368 273.312 
L 322.687368 131.839522 
L 321.070812 131.839522 
z
" style="fill:#1f77b4;"/>
   </g>
   <g id="patch_165">
    <path clip-path="url(#p3dd75df862)" d="M 322.687368 273.312 
L 324.303923 273.312 
L 324.303923 140.91797 
L 322.687368 140.91797 
z
" style="fill:#1f77b4;"/>
   </g>
   <g id="patch_166">
    <path clip-path="url(#p3dd75df862)" d="M 324.303923 273.312 
L 325.920478 273.312 
L 325.920478 147.726806 
L 324.303923 147.726806 
z
" style="fill:#1f77b4;"/>
   </g>
   <g id="patch_167">
    <path clip-path="url(#p3dd75df862)" d="M 325.920478 273.312 
L 327.537034 273.312 
L 327.537034 146.213731 
L 325.920478 146.213731 
z
" style="fill:#1f77b4;"/>
   </g>
   <g id="patch_168">
    <path clip-path="url(#p3dd75df862)" d="M 327.537034 273.312 
L 329.153589 273.312 
L 329.153589 148.483343 
L 327.537034 148.483343 
z
" style="fill:#1f77b4;"/>
   </g>
   <g id="patch_169">
    <path clip-path="url(#p3dd75df862)" d="M 329.153589 273.312 
L 330.770145 273.312 
L 330.770145 163.61409 
L 329.153589 163.61409 
z
" style="fill:#1f77b4;"/>
   </g>
   <g id="patch_170">
    <path clip-path="url(#p3dd75df862)" d="M 330.770145 273.312 
L 332.3867 273.312 
L 332.3867 134.865672 
L 330.770145 134.865672 
z
" style="fill:#1f77b4;"/>
   </g>
   <g id="patch_171">
    <path clip-path="url(#p3dd75df862)" d="M 332.3867 273.312 
L 334.003256 273.312 
L 334.003256 160.58794 
L 332.3867 160.58794 
z
" style="fill:#1f77b4;"/>
   </g>
   <g id="patch_172">
    <path clip-path="url(#p3dd75df862)" d="M 334.003256 273.312 
L 335.619811 273.312 
L 335.619811 169.666388 
L 334.003256 169.666388 
z
" style="fill:#1f77b4;"/>
   </g>
   <g id="patch_173">
    <path clip-path="url(#p3dd75df862)" d="M 335.619811 273.312 
L 337.236366 273.312 
L 337.236366 178.744836 
L 335.619811 178.744836 
z
" style="fill:#1f77b4;"/>
   </g>
   <g id="patch_174">
    <path clip-path="url(#p3dd75df862)" d="M 337.236366 273.312 
L 338.852922 273.312 
L 338.852922 163.61409 
L 337.236366 163.61409 
z
" style="fill:#1f77b4;"/>
   </g>
   <g id="patch_175">
    <path clip-path="url(#p3dd75df862)" d="M 338.852922 273.312 
L 340.469477 273.312 
L 340.469477 168.153313 
L 338.852922 168.153313 
z
" style="fill:#1f77b4;"/>
   </g>
   <g id="patch_176">
    <path clip-path="url(#p3dd75df862)" d="M 340.469477 273.312 
L 342.086033 273.312 
L 342.086033 181.770985 
L 340.469477 181.770985 
z
" style="fill:#1f77b4;"/>
   </g>
   <g id="patch_177">
    <path clip-path="url(#p3dd75df862)" d="M 342.086033 273.312 
L 343.702588 273.312 
L 343.702588 172.692537 
L 342.086033 172.692537 
z
" style="fill:#1f77b4;"/>
   </g>
   <g id="patch_178">
    <path clip-path="url(#p3dd75df862)" d="M 343.702588 273.312 
L 345.319143 273.312 
L 345.319143 172.692537 
L 343.702588 172.692537 
z
" style="fill:#1f77b4;"/>
   </g>
   <g id="patch_179">
    <path clip-path="url(#p3dd75df862)" d="M 345.319143 273.312 
L 346.935699 273.312 
L 346.935699 177.988299 
L 345.319143 177.988299 
z
" style="fill:#1f77b4;"/>
   </g>
   <g id="patch_180">
    <path clip-path="url(#p3dd75df862)" d="M 346.935699 273.312 
L 348.552254 273.312 
L 348.552254 199.927881 
L 346.935699 199.927881 
z
" style="fill:#1f77b4;"/>
   </g>
   <g id="patch_181">
    <path clip-path="url(#p3dd75df862)" d="M 348.552254 273.312 
L 350.16881 273.312 
L 350.16881 190.092896 
L 348.552254 190.092896 
z
" style="fill:#1f77b4;"/>
   </g>
   <g id="patch_182">
    <path clip-path="url(#p3dd75df862)" d="M 350.16881 273.312 
L 351.785365 273.312 
L 351.785365 202.95403 
L 350.16881 202.95403 
z
" style="fill:#1f77b4;"/>
   </g>
   <g id="patch_183">
    <path clip-path="url(#p3dd75df862)" d="M 351.785365 273.312 
L 353.40192 273.312 
L 353.40192 195.388657 
L 351.785365 195.388657 
z
" style="fill:#1f77b4;"/>
   </g>
   <g id="patch_184">
    <path clip-path="url(#p3dd75df862)" d="M 353.40192 273.312 
L 355.018476 273.312 
L 355.018476 196.145194 
L 353.40192 196.145194 
z
" style="fill:#1f77b4;"/>
   </g>
   <g id="patch_185">
    <path clip-path="url(#p3dd75df862)" d="M 355.018476 273.312 
L 356.635031 273.312 
L 356.635031 208.249791 
L 355.018476 208.249791 
z
" style="fill:#1f77b4;"/>
   </g>
   <g id="patch_186">
    <path clip-path="url(#p3dd75df862)" d="M 356.635031 273.312 
L 358.251587 273.312 
L 358.251587 207.493254 
L 356.635031 207.493254 
z
" style="fill:#1f77b4;"/>
   </g>
   <g id="patch_187">
    <path clip-path="url(#p3dd75df862)" d="M 358.251587 273.312 
L 359.868142 273.312 
L 359.868142 224.893612 
L 358.251587 224.893612 
z
" style="fill:#1f77b4;"/>
   </g>
   <g id="patch_188">
    <path clip-path="url(#p3dd75df862)" d="M 359.868142 273.312 
L 361.484697 273.312 
L 361.484697 216.571701 
L 359.868142 216.571701 
z
" style="fill:#1f77b4;"/>
   </g>
   <g id="patch_189">
    <path clip-path="url(#p3dd75df862)" d="M 361.484697 273.312 
L 363.101253 273.312 
L 363.101253 221.867463 
L 361.484697 221.867463 
z
" style="fill:#1f77b4;"/>
   </g>
   <g id="patch_190">
    <path clip-path="url(#p3dd75df862)" d="M 363.101253 273.312 
L 364.717808 273.312 
L 364.717808 230.94591 
L 363.101253 230.94591 
z
" style="fill:#1f77b4;"/>
   </g>
   <g id="patch_191">
    <path clip-path="url(#p3dd75df862)" d="M 364.717808 273.312 
L 366.334364 273.312 
L 366.334364 229.432836 
L 364.717808 229.432836 
z
" style="fill:#1f77b4;"/>
   </g>
   <g id="patch_192">
    <path clip-path="url(#p3dd75df862)" d="M 366.334364 273.312 
L 367.950919 273.312 
L 367.950919 236.241672 
L 366.334364 236.241672 
z
" style="fill:#1f77b4;"/>
   </g>
   <g id="patch_193">
    <path clip-path="url(#p3dd75df862)" d="M 367.950919 273.312 
L 369.567474 273.312 
L 369.567474 233.97206 
L 367.950919 233.97206 
z
" style="fill:#1f77b4;"/>
   </g>
   <g id="patch_194">
    <path clip-path="url(#p3dd75df862)" d="M 369.567474 273.312 
L 371.18403 273.312 
L 371.18403 251.372418 
L 369.567474 251.372418 
z
" style="fill:#1f77b4;"/>
   </g>
   <g id="patch_195">
    <path clip-path="url(#p3dd75df862)" d="M 371.18403 273.312 
L 372.800585 273.312 
L 372.800585 243.807045 
L 371.18403 243.807045 
z
" style="fill:#1f77b4;"/>
   </g>
   <g id="patch_196">
    <path clip-path="url(#p3dd75df862)" d="M 372.800585 273.312 
L 374.417141 273.312 
L 374.417141 248.346269 
L 372.800585 248.346269 
z
" style="fill:#1f77b4;"/>
   </g>
   <g id="patch_197">
    <path clip-path="url(#p3dd75df862)" d="M 374.417141 273.312 
L 376.033696 273.312 
L 376.033696 245.320119 
L 374.417141 245.320119 
z
" style="fill:#1f77b4;"/>
   </g>
   <g id="patch_198">
    <path clip-path="url(#p3dd75df862)" d="M 376.033696 273.312 
L 377.650252 273.312 
L 377.650252 258.937791 
L 376.033696 258.937791 
z
" style="fill:#1f77b4;"/>
   </g>
   <g id="patch_199">
    <path clip-path="url(#p3dd75df862)" d="M 377.650252 273.312 
L 379.266807 273.312 
L 379.266807 256.668179 
L 377.650252 256.668179 
z
" style="fill:#1f77b4;"/>
   </g>
   <g id="patch_200">
    <path clip-path="url(#p3dd75df862)" d="M 379.266807 273.312 
L 380.883362 273.312 
L 380.883362 260.450866 
L 379.266807 260.450866 
z
" style="fill:#1f77b4;"/>
   </g>
   <g id="patch_201">
    <path clip-path="url(#p3dd75df862)" d="M 380.883362 273.312 
L 382.499918 273.312 
L 382.499918 264.99009 
L 380.883362 264.99009 
z
" style="fill:#1f77b4;"/>
   </g>
   <g id="patch_202">
    <path clip-path="url(#p3dd75df862)" d="M 382.499918 273.312 
L 384.116473 273.312 
L 384.116473 269.529313 
L 382.499918 269.529313 
z
" style="fill:#1f77b4;"/>
   </g>
   <g id="matplotlib.axis_1">
    <g id="xtick_1">
     <g id="line2d_1">
      <defs>
       <path d="M 0 0 
L 0 3.5 
" id="m470c565efa" style="stroke:#000000;stroke-width:0.8;"/>
      </defs>
      <g>
       <use style="stroke:#000000;stroke-width:0.8;" x="60.013977" xlink:href="#m470c565efa" y="273.312"/>
      </g>
     </g>
     <g id="text_1">
      <!-- 0.0 -->
      <g transform="translate(52.062415 287.910437)scale(0.1 -0.1)">
       <defs>
        <path d="M 2034 4250 
Q 1547 4250 1301 3770 
Q 1056 3291 1056 2328 
Q 1056 1369 1301 889 
Q 1547 409 2034 409 
Q 2525 409 2770 889 
Q 3016 1369 3016 2328 
Q 3016 3291 2770 3770 
Q 2525 4250 2034 4250 
z
M 2034 4750 
Q 2819 4750 3233 4129 
Q 3647 3509 3647 2328 
Q 3647 1150 3233 529 
Q 2819 -91 2034 -91 
Q 1250 -91 836 529 
Q 422 1150 422 2328 
Q 422 3509 836 4129 
Q 1250 4750 2034 4750 
z
" id="DejaVuSans-30" transform="scale(0.015625)"/>
        <path d="M 684 794 
L 1344 794 
L 1344 0 
L 684 0 
L 684 794 
z
" id="DejaVuSans-2e" transform="scale(0.015625)"/>
       </defs>
       <use xlink:href="#DejaVuSans-30"/>
       <use x="63.623047" xlink:href="#DejaVuSans-2e"/>
       <use x="95.410156" xlink:href="#DejaVuSans-30"/>
      </g>
     </g>
    </g>
    <g id="xtick_2">
     <g id="line2d_2">
      <g>
       <use style="stroke:#000000;stroke-width:0.8;" x="101.350278" xlink:href="#m470c565efa" y="273.312"/>
      </g>
     </g>
     <g id="text_2">
      <!-- 0.2 -->
      <g transform="translate(93.398715 287.910437)scale(0.1 -0.1)">
       <defs>
        <path d="M 1228 531 
L 3431 531 
L 3431 0 
L 469 0 
L 469 531 
Q 828 903 1448 1529 
Q 2069 2156 2228 2338 
Q 2531 2678 2651 2914 
Q 2772 3150 2772 3378 
Q 2772 3750 2511 3984 
Q 2250 4219 1831 4219 
Q 1534 4219 1204 4116 
Q 875 4013 500 3803 
L 500 4441 
Q 881 4594 1212 4672 
Q 1544 4750 1819 4750 
Q 2544 4750 2975 4387 
Q 3406 4025 3406 3419 
Q 3406 3131 3298 2873 
Q 3191 2616 2906 2266 
Q 2828 2175 2409 1742 
Q 1991 1309 1228 531 
z
" id="DejaVuSans-32" transform="scale(0.015625)"/>
       </defs>
       <use xlink:href="#DejaVuSans-30"/>
       <use x="63.623047" xlink:href="#DejaVuSans-2e"/>
       <use x="95.410156" xlink:href="#DejaVuSans-32"/>
      </g>
     </g>
    </g>
    <g id="xtick_3">
     <g id="line2d_3">
      <g>
       <use style="stroke:#000000;stroke-width:0.8;" x="142.686578" xlink:href="#m470c565efa" y="273.312"/>
      </g>
     </g>
     <g id="text_3">
      <!-- 0.4 -->
      <g transform="translate(134.735016 287.910437)scale(0.1 -0.1)">
       <defs>
        <path d="M 2419 4116 
L 825 1625 
L 2419 1625 
L 2419 4116 
z
M 2253 4666 
L 3047 4666 
L 3047 1625 
L 3713 1625 
L 3713 1100 
L 3047 1100 
L 3047 0 
L 2419 0 
L 2419 1100 
L 313 1100 
L 313 1709 
L 2253 4666 
z
" id="DejaVuSans-34" transform="scale(0.015625)"/>
       </defs>
       <use xlink:href="#DejaVuSans-30"/>
       <use x="63.623047" xlink:href="#DejaVuSans-2e"/>
       <use x="95.410156" xlink:href="#DejaVuSans-34"/>
      </g>
     </g>
    </g>
    <g id="xtick_4">
     <g id="line2d_4">
      <g>
       <use style="stroke:#000000;stroke-width:0.8;" x="184.022879" xlink:href="#m470c565efa" y="273.312"/>
      </g>
     </g>
     <g id="text_4">
      <!-- 0.6 -->
      <g transform="translate(176.071316 287.910437)scale(0.1 -0.1)">
       <defs>
        <path d="M 2113 2584 
Q 1688 2584 1439 2293 
Q 1191 2003 1191 1497 
Q 1191 994 1439 701 
Q 1688 409 2113 409 
Q 2538 409 2786 701 
Q 3034 994 3034 1497 
Q 3034 2003 2786 2293 
Q 2538 2584 2113 2584 
z
M 3366 4563 
L 3366 3988 
Q 3128 4100 2886 4159 
Q 2644 4219 2406 4219 
Q 1781 4219 1451 3797 
Q 1122 3375 1075 2522 
Q 1259 2794 1537 2939 
Q 1816 3084 2150 3084 
Q 2853 3084 3261 2657 
Q 3669 2231 3669 1497 
Q 3669 778 3244 343 
Q 2819 -91 2113 -91 
Q 1303 -91 875 529 
Q 447 1150 447 2328 
Q 447 3434 972 4092 
Q 1497 4750 2381 4750 
Q 2619 4750 2861 4703 
Q 3103 4656 3366 4563 
z
" id="DejaVuSans-36" transform="scale(0.015625)"/>
       </defs>
       <use xlink:href="#DejaVuSans-30"/>
       <use x="63.623047" xlink:href="#DejaVuSans-2e"/>
       <use x="95.410156" xlink:href="#DejaVuSans-36"/>
      </g>
     </g>
    </g>
    <g id="xtick_5">
     <g id="line2d_5">
      <g>
       <use style="stroke:#000000;stroke-width:0.8;" x="225.35918" xlink:href="#m470c565efa" y="273.312"/>
      </g>
     </g>
     <g id="text_5">
      <!-- 0.8 -->
      <g transform="translate(217.407617 287.910437)scale(0.1 -0.1)">
       <defs>
        <path d="M 2034 2216 
Q 1584 2216 1326 1975 
Q 1069 1734 1069 1313 
Q 1069 891 1326 650 
Q 1584 409 2034 409 
Q 2484 409 2743 651 
Q 3003 894 3003 1313 
Q 3003 1734 2745 1975 
Q 2488 2216 2034 2216 
z
M 1403 2484 
Q 997 2584 770 2862 
Q 544 3141 544 3541 
Q 544 4100 942 4425 
Q 1341 4750 2034 4750 
Q 2731 4750 3128 4425 
Q 3525 4100 3525 3541 
Q 3525 3141 3298 2862 
Q 3072 2584 2669 2484 
Q 3125 2378 3379 2068 
Q 3634 1759 3634 1313 
Q 3634 634 3220 271 
Q 2806 -91 2034 -91 
Q 1263 -91 848 271 
Q 434 634 434 1313 
Q 434 1759 690 2068 
Q 947 2378 1403 2484 
z
M 1172 3481 
Q 1172 3119 1398 2916 
Q 1625 2713 2034 2713 
Q 2441 2713 2670 2916 
Q 2900 3119 2900 3481 
Q 2900 3844 2670 4047 
Q 2441 4250 2034 4250 
Q 1625 4250 1398 4047 
Q 1172 3844 1172 3481 
z
" id="DejaVuSans-38" transform="scale(0.015625)"/>
       </defs>
       <use xlink:href="#DejaVuSans-30"/>
       <use x="63.623047" xlink:href="#DejaVuSans-2e"/>
       <use x="95.410156" xlink:href="#DejaVuSans-38"/>
      </g>
     </g>
    </g>
    <g id="xtick_6">
     <g id="line2d_6">
      <g>
       <use style="stroke:#000000;stroke-width:0.8;" x="266.69548" xlink:href="#m470c565efa" y="273.312"/>
      </g>
     </g>
     <g id="text_6">
      <!-- 1.0 -->
      <g transform="translate(258.743918 287.910437)scale(0.1 -0.1)">
       <defs>
        <path d="M 794 531 
L 1825 531 
L 1825 4091 
L 703 3866 
L 703 4441 
L 1819 4666 
L 2450 4666 
L 2450 531 
L 3481 531 
L 3481 0 
L 794 0 
L 794 531 
z
" id="DejaVuSans-31" transform="scale(0.015625)"/>
       </defs>
       <use xlink:href="#DejaVuSans-31"/>
       <use x="63.623047" xlink:href="#DejaVuSans-2e"/>
       <use x="95.410156" xlink:href="#DejaVuSans-30"/>
      </g>
     </g>
    </g>
    <g id="xtick_7">
     <g id="line2d_7">
      <g>
       <use style="stroke:#000000;stroke-width:0.8;" x="308.031781" xlink:href="#m470c565efa" y="273.312"/>
      </g>
     </g>
     <g id="text_7">
      <!-- 1.2 -->
      <g transform="translate(300.080218 287.910437)scale(0.1 -0.1)">
       <use xlink:href="#DejaVuSans-31"/>
       <use x="63.623047" xlink:href="#DejaVuSans-2e"/>
       <use x="95.410156" xlink:href="#DejaVuSans-32"/>
      </g>
     </g>
    </g>
    <g id="xtick_8">
     <g id="line2d_8">
      <g>
       <use style="stroke:#000000;stroke-width:0.8;" x="349.368081" xlink:href="#m470c565efa" y="273.312"/>
      </g>
     </g>
     <g id="text_8">
      <!-- 1.4 -->
      <g transform="translate(341.416519 287.910437)scale(0.1 -0.1)">
       <use xlink:href="#DejaVuSans-31"/>
       <use x="63.623047" xlink:href="#DejaVuSans-2e"/>
       <use x="95.410156" xlink:href="#DejaVuSans-34"/>
      </g>
     </g>
    </g>
    <g id="xtick_9">
     <g id="line2d_9">
      <g>
       <use style="stroke:#000000;stroke-width:0.8;" x="390.704382" xlink:href="#m470c565efa" y="273.312"/>
      </g>
     </g>
     <g id="text_9">
      <!-- 1.6 -->
      <g transform="translate(382.752819 287.910437)scale(0.1 -0.1)">
       <use xlink:href="#DejaVuSans-31"/>
       <use x="63.623047" xlink:href="#DejaVuSans-2e"/>
       <use x="95.410156" xlink:href="#DejaVuSans-36"/>
      </g>
     </g>
    </g>
    <g id="text_10">
     <!-- Angle with normal (rad) -->
     <g transform="translate(163.023281 301.588562)scale(0.1 -0.1)">
      <defs>
       <path d="M 2188 4044 
L 1331 1722 
L 3047 1722 
L 2188 4044 
z
M 1831 4666 
L 2547 4666 
L 4325 0 
L 3669 0 
L 3244 1197 
L 1141 1197 
L 716 0 
L 50 0 
L 1831 4666 
z
" id="DejaVuSans-41" transform="scale(0.015625)"/>
       <path d="M 3513 2113 
L 3513 0 
L 2938 0 
L 2938 2094 
Q 2938 2591 2744 2837 
Q 2550 3084 2163 3084 
Q 1697 3084 1428 2787 
Q 1159 2491 1159 1978 
L 1159 0 
L 581 0 
L 581 3500 
L 1159 3500 
L 1159 2956 
Q 1366 3272 1645 3428 
Q 1925 3584 2291 3584 
Q 2894 3584 3203 3211 
Q 3513 2838 3513 2113 
z
" id="DejaVuSans-6e" transform="scale(0.015625)"/>
       <path d="M 2906 1791 
Q 2906 2416 2648 2759 
Q 2391 3103 1925 3103 
Q 1463 3103 1205 2759 
Q 947 2416 947 1791 
Q 947 1169 1205 825 
Q 1463 481 1925 481 
Q 2391 481 2648 825 
Q 2906 1169 2906 1791 
z
M 3481 434 
Q 3481 -459 3084 -895 
Q 2688 -1331 1869 -1331 
Q 1566 -1331 1297 -1286 
Q 1028 -1241 775 -1147 
L 775 -588 
Q 1028 -725 1275 -790 
Q 1522 -856 1778 -856 
Q 2344 -856 2625 -561 
Q 2906 -266 2906 331 
L 2906 616 
Q 2728 306 2450 153 
Q 2172 0 1784 0 
Q 1141 0 747 490 
Q 353 981 353 1791 
Q 353 2603 747 3093 
Q 1141 3584 1784 3584 
Q 2172 3584 2450 3431 
Q 2728 3278 2906 2969 
L 2906 3500 
L 3481 3500 
L 3481 434 
z
" id="DejaVuSans-67" transform="scale(0.015625)"/>
       <path d="M 603 4863 
L 1178 4863 
L 1178 0 
L 603 0 
L 603 4863 
z
" id="DejaVuSans-6c" transform="scale(0.015625)"/>
       <path d="M 3597 1894 
L 3597 1613 
L 953 1613 
Q 991 1019 1311 708 
Q 1631 397 2203 397 
Q 2534 397 2845 478 
Q 3156 559 3463 722 
L 3463 178 
Q 3153 47 2828 -22 
Q 2503 -91 2169 -91 
Q 1331 -91 842 396 
Q 353 884 353 1716 
Q 353 2575 817 3079 
Q 1281 3584 2069 3584 
Q 2775 3584 3186 3129 
Q 3597 2675 3597 1894 
z
M 3022 2063 
Q 3016 2534 2758 2815 
Q 2500 3097 2075 3097 
Q 1594 3097 1305 2825 
Q 1016 2553 972 2059 
L 3022 2063 
z
" id="DejaVuSans-65" transform="scale(0.015625)"/>
       <path id="DejaVuSans-20" transform="scale(0.015625)"/>
       <path d="M 269 3500 
L 844 3500 
L 1563 769 
L 2278 3500 
L 2956 3500 
L 3675 769 
L 4391 3500 
L 4966 3500 
L 4050 0 
L 3372 0 
L 2619 2869 
L 1863 0 
L 1184 0 
L 269 3500 
z
" id="DejaVuSans-77" transform="scale(0.015625)"/>
       <path d="M 603 3500 
L 1178 3500 
L 1178 0 
L 603 0 
L 603 3500 
z
M 603 4863 
L 1178 4863 
L 1178 4134 
L 603 4134 
L 603 4863 
z
" id="DejaVuSans-69" transform="scale(0.015625)"/>
       <path d="M 1172 4494 
L 1172 3500 
L 2356 3500 
L 2356 3053 
L 1172 3053 
L 1172 1153 
Q 1172 725 1289 603 
Q 1406 481 1766 481 
L 2356 481 
L 2356 0 
L 1766 0 
Q 1100 0 847 248 
Q 594 497 594 1153 
L 594 3053 
L 172 3053 
L 172 3500 
L 594 3500 
L 594 4494 
L 1172 4494 
z
" id="DejaVuSans-74" transform="scale(0.015625)"/>
       <path d="M 3513 2113 
L 3513 0 
L 2938 0 
L 2938 2094 
Q 2938 2591 2744 2837 
Q 2550 3084 2163 3084 
Q 1697 3084 1428 2787 
Q 1159 2491 1159 1978 
L 1159 0 
L 581 0 
L 581 4863 
L 1159 4863 
L 1159 2956 
Q 1366 3272 1645 3428 
Q 1925 3584 2291 3584 
Q 2894 3584 3203 3211 
Q 3513 2838 3513 2113 
z
" id="DejaVuSans-68" transform="scale(0.015625)"/>
       <path d="M 1959 3097 
Q 1497 3097 1228 2736 
Q 959 2375 959 1747 
Q 959 1119 1226 758 
Q 1494 397 1959 397 
Q 2419 397 2687 759 
Q 2956 1122 2956 1747 
Q 2956 2369 2687 2733 
Q 2419 3097 1959 3097 
z
M 1959 3584 
Q 2709 3584 3137 3096 
Q 3566 2609 3566 1747 
Q 3566 888 3137 398 
Q 2709 -91 1959 -91 
Q 1206 -91 779 398 
Q 353 888 353 1747 
Q 353 2609 779 3096 
Q 1206 3584 1959 3584 
z
" id="DejaVuSans-6f" transform="scale(0.015625)"/>
       <path d="M 2631 2963 
Q 2534 3019 2420 3045 
Q 2306 3072 2169 3072 
Q 1681 3072 1420 2755 
Q 1159 2438 1159 1844 
L 1159 0 
L 581 0 
L 581 3500 
L 1159 3500 
L 1159 2956 
Q 1341 3275 1631 3429 
Q 1922 3584 2338 3584 
Q 2397 3584 2469 3576 
Q 2541 3569 2628 3553 
L 2631 2963 
z
" id="DejaVuSans-72" transform="scale(0.015625)"/>
       <path d="M 3328 2828 
Q 3544 3216 3844 3400 
Q 4144 3584 4550 3584 
Q 5097 3584 5394 3201 
Q 5691 2819 5691 2113 
L 5691 0 
L 5113 0 
L 5113 2094 
Q 5113 2597 4934 2840 
Q 4756 3084 4391 3084 
Q 3944 3084 3684 2787 
Q 3425 2491 3425 1978 
L 3425 0 
L 2847 0 
L 2847 2094 
Q 2847 2600 2669 2842 
Q 2491 3084 2119 3084 
Q 1678 3084 1418 2786 
Q 1159 2488 1159 1978 
L 1159 0 
L 581 0 
L 581 3500 
L 1159 3500 
L 1159 2956 
Q 1356 3278 1631 3431 
Q 1906 3584 2284 3584 
Q 2666 3584 2933 3390 
Q 3200 3197 3328 2828 
z
" id="DejaVuSans-6d" transform="scale(0.015625)"/>
       <path d="M 2194 1759 
Q 1497 1759 1228 1600 
Q 959 1441 959 1056 
Q 959 750 1161 570 
Q 1363 391 1709 391 
Q 2188 391 2477 730 
Q 2766 1069 2766 1631 
L 2766 1759 
L 2194 1759 
z
M 3341 1997 
L 3341 0 
L 2766 0 
L 2766 531 
Q 2569 213 2275 61 
Q 1981 -91 1556 -91 
Q 1019 -91 701 211 
Q 384 513 384 1019 
Q 384 1609 779 1909 
Q 1175 2209 1959 2209 
L 2766 2209 
L 2766 2266 
Q 2766 2663 2505 2880 
Q 2244 3097 1772 3097 
Q 1472 3097 1187 3025 
Q 903 2953 641 2809 
L 641 3341 
Q 956 3463 1253 3523 
Q 1550 3584 1831 3584 
Q 2591 3584 2966 3190 
Q 3341 2797 3341 1997 
z
" id="DejaVuSans-61" transform="scale(0.015625)"/>
       <path d="M 1984 4856 
Q 1566 4138 1362 3434 
Q 1159 2731 1159 2009 
Q 1159 1288 1364 580 
Q 1569 -128 1984 -844 
L 1484 -844 
Q 1016 -109 783 600 
Q 550 1309 550 2009 
Q 550 2706 781 3412 
Q 1013 4119 1484 4856 
L 1984 4856 
z
" id="DejaVuSans-28" transform="scale(0.015625)"/>
       <path d="M 2906 2969 
L 2906 4863 
L 3481 4863 
L 3481 0 
L 2906 0 
L 2906 525 
Q 2725 213 2448 61 
Q 2172 -91 1784 -91 
Q 1150 -91 751 415 
Q 353 922 353 1747 
Q 353 2572 751 3078 
Q 1150 3584 1784 3584 
Q 2172 3584 2448 3432 
Q 2725 3281 2906 2969 
z
M 947 1747 
Q 947 1113 1208 752 
Q 1469 391 1925 391 
Q 2381 391 2643 752 
Q 2906 1113 2906 1747 
Q 2906 2381 2643 2742 
Q 2381 3103 1925 3103 
Q 1469 3103 1208 2742 
Q 947 2381 947 1747 
z
" id="DejaVuSans-64" transform="scale(0.015625)"/>
       <path d="M 513 4856 
L 1013 4856 
Q 1481 4119 1714 3412 
Q 1947 2706 1947 2009 
Q 1947 1309 1714 600 
Q 1481 -109 1013 -844 
L 513 -844 
Q 928 -128 1133 580 
Q 1338 1288 1338 2009 
Q 1338 2731 1133 3434 
Q 928 4138 513 4856 
z
" id="DejaVuSans-29" transform="scale(0.015625)"/>
      </defs>
      <use xlink:href="#DejaVuSans-41"/>
      <use x="68.408203" xlink:href="#DejaVuSans-6e"/>
      <use x="131.787109" xlink:href="#DejaVuSans-67"/>
      <use x="195.263672" xlink:href="#DejaVuSans-6c"/>
      <use x="223.046875" xlink:href="#DejaVuSans-65"/>
      <use x="284.570312" xlink:href="#DejaVuSans-20"/>
      <use x="316.357422" xlink:href="#DejaVuSans-77"/>
      <use x="398.144531" xlink:href="#DejaVuSans-69"/>
      <use x="425.927734" xlink:href="#DejaVuSans-74"/>
      <use x="465.136719" xlink:href="#DejaVuSans-68"/>
      <use x="528.515625" xlink:href="#DejaVuSans-20"/>
      <use x="560.302734" xlink:href="#DejaVuSans-6e"/>
      <use x="623.681641" xlink:href="#DejaVuSans-6f"/>
      <use x="684.863281" xlink:href="#DejaVuSans-72"/>
      <use x="724.226562" xlink:href="#DejaVuSans-6d"/>
      <use x="821.638672" xlink:href="#DejaVuSans-61"/>
      <use x="882.917969" xlink:href="#DejaVuSans-6c"/>
      <use x="910.701172" xlink:href="#DejaVuSans-20"/>
      <use x="942.488281" xlink:href="#DejaVuSans-28"/>
      <use x="981.501953" xlink:href="#DejaVuSans-72"/>
      <use x="1022.615234" xlink:href="#DejaVuSans-61"/>
      <use x="1083.894531" xlink:href="#DejaVuSans-64"/>
      <use x="1147.371094" xlink:href="#DejaVuSans-29"/>
     </g>
    </g>
   </g>
   <g id="matplotlib.axis_2">
    <g id="ytick_1">
     <g id="line2d_10">
      <defs>
       <path d="M 0 0 
L -3.5 0 
" id="m340a9f4a7f" style="stroke:#000000;stroke-width:0.8;"/>
      </defs>
      <g>
       <use style="stroke:#000000;stroke-width:0.8;" x="43.78125" xlink:href="#m340a9f4a7f" y="273.312"/>
      </g>
     </g>
     <g id="text_11">
      <!-- 0.0 -->
      <g transform="translate(20.878125 277.111219)scale(0.1 -0.1)">
       <use xlink:href="#DejaVuSans-30"/>
       <use x="63.623047" xlink:href="#DejaVuSans-2e"/>
       <use x="95.410156" xlink:href="#DejaVuSans-30"/>
      </g>
     </g>
    </g>
    <g id="ytick_2">
     <g id="line2d_11">
      <g>
       <use style="stroke:#000000;stroke-width:0.8;" x="43.78125" xlink:href="#m340a9f4a7f" y="225.974063"/>
      </g>
     </g>
     <g id="text_12">
      <!-- 0.2 -->
      <g transform="translate(20.878125 229.773282)scale(0.1 -0.1)">
       <use xlink:href="#DejaVuSans-30"/>
       <use x="63.623047" xlink:href="#DejaVuSans-2e"/>
       <use x="95.410156" xlink:href="#DejaVuSans-32"/>
      </g>
     </g>
    </g>
    <g id="ytick_3">
     <g id="line2d_12">
      <g>
       <use style="stroke:#000000;stroke-width:0.8;" x="43.78125" xlink:href="#m340a9f4a7f" y="178.636127"/>
      </g>
     </g>
     <g id="text_13">
      <!-- 0.4 -->
      <g transform="translate(20.878125 182.435346)scale(0.1 -0.1)">
       <use xlink:href="#DejaVuSans-30"/>
       <use x="63.623047" xlink:href="#DejaVuSans-2e"/>
       <use x="95.410156" xlink:href="#DejaVuSans-34"/>
      </g>
     </g>
    </g>
    <g id="ytick_4">
     <g id="line2d_13">
      <g>
       <use style="stroke:#000000;stroke-width:0.8;" x="43.78125" xlink:href="#m340a9f4a7f" y="131.29819"/>
      </g>
     </g>
     <g id="text_14">
      <!-- 0.6 -->
      <g transform="translate(20.878125 135.097409)scale(0.1 -0.1)">
       <use xlink:href="#DejaVuSans-30"/>
       <use x="63.623047" xlink:href="#DejaVuSans-2e"/>
       <use x="95.410156" xlink:href="#DejaVuSans-36"/>
      </g>
     </g>
    </g>
    <g id="ytick_5">
     <g id="line2d_14">
      <g>
       <use style="stroke:#000000;stroke-width:0.8;" x="43.78125" xlink:href="#m340a9f4a7f" y="83.960254"/>
      </g>
     </g>
     <g id="text_15">
      <!-- 0.8 -->
      <g transform="translate(20.878125 87.759472)scale(0.1 -0.1)">
       <use xlink:href="#DejaVuSans-30"/>
       <use x="63.623047" xlink:href="#DejaVuSans-2e"/>
       <use x="95.410156" xlink:href="#DejaVuSans-38"/>
      </g>
     </g>
    </g>
    <g id="ytick_6">
     <g id="line2d_15">
      <g>
       <use style="stroke:#000000;stroke-width:0.8;" x="43.78125" xlink:href="#m340a9f4a7f" y="36.622317"/>
      </g>
     </g>
     <g id="text_16">
      <!-- 1.0 -->
      <g transform="translate(20.878125 40.421536)scale(0.1 -0.1)">
       <use xlink:href="#DejaVuSans-31"/>
       <use x="63.623047" xlink:href="#DejaVuSans-2e"/>
       <use x="95.410156" xlink:href="#DejaVuSans-30"/>
      </g>
     </g>
    </g>
    <g id="text_17">
     <!-- Probability density -->
     <g transform="translate(14.798438 186.606781)rotate(-90)scale(0.1 -0.1)">
      <defs>
       <path d="M 1259 4147 
L 1259 2394 
L 2053 2394 
Q 2494 2394 2734 2622 
Q 2975 2850 2975 3272 
Q 2975 3691 2734 3919 
Q 2494 4147 2053 4147 
L 1259 4147 
z
M 628 4666 
L 2053 4666 
Q 2838 4666 3239 4311 
Q 3641 3956 3641 3272 
Q 3641 2581 3239 2228 
Q 2838 1875 2053 1875 
L 1259 1875 
L 1259 0 
L 628 0 
L 628 4666 
z
" id="DejaVuSans-50" transform="scale(0.015625)"/>
       <path d="M 3116 1747 
Q 3116 2381 2855 2742 
Q 2594 3103 2138 3103 
Q 1681 3103 1420 2742 
Q 1159 2381 1159 1747 
Q 1159 1113 1420 752 
Q 1681 391 2138 391 
Q 2594 391 2855 752 
Q 3116 1113 3116 1747 
z
M 1159 2969 
Q 1341 3281 1617 3432 
Q 1894 3584 2278 3584 
Q 2916 3584 3314 3078 
Q 3713 2572 3713 1747 
Q 3713 922 3314 415 
Q 2916 -91 2278 -91 
Q 1894 -91 1617 61 
Q 1341 213 1159 525 
L 1159 0 
L 581 0 
L 581 4863 
L 1159 4863 
L 1159 2969 
z
" id="DejaVuSans-62" transform="scale(0.015625)"/>
       <path d="M 2059 -325 
Q 1816 -950 1584 -1140 
Q 1353 -1331 966 -1331 
L 506 -1331 
L 506 -850 
L 844 -850 
Q 1081 -850 1212 -737 
Q 1344 -625 1503 -206 
L 1606 56 
L 191 3500 
L 800 3500 
L 1894 763 
L 2988 3500 
L 3597 3500 
L 2059 -325 
z
" id="DejaVuSans-79" transform="scale(0.015625)"/>
       <path d="M 2834 3397 
L 2834 2853 
Q 2591 2978 2328 3040 
Q 2066 3103 1784 3103 
Q 1356 3103 1142 2972 
Q 928 2841 928 2578 
Q 928 2378 1081 2264 
Q 1234 2150 1697 2047 
L 1894 2003 
Q 2506 1872 2764 1633 
Q 3022 1394 3022 966 
Q 3022 478 2636 193 
Q 2250 -91 1575 -91 
Q 1294 -91 989 -36 
Q 684 19 347 128 
L 347 722 
Q 666 556 975 473 
Q 1284 391 1588 391 
Q 1994 391 2212 530 
Q 2431 669 2431 922 
Q 2431 1156 2273 1281 
Q 2116 1406 1581 1522 
L 1381 1569 
Q 847 1681 609 1914 
Q 372 2147 372 2553 
Q 372 3047 722 3315 
Q 1072 3584 1716 3584 
Q 2034 3584 2315 3537 
Q 2597 3491 2834 3397 
z
" id="DejaVuSans-73" transform="scale(0.015625)"/>
      </defs>
      <use xlink:href="#DejaVuSans-50"/>
      <use x="58.552734" xlink:href="#DejaVuSans-72"/>
      <use x="97.416016" xlink:href="#DejaVuSans-6f"/>
      <use x="158.597656" xlink:href="#DejaVuSans-62"/>
      <use x="222.074219" xlink:href="#DejaVuSans-61"/>
      <use x="283.353516" xlink:href="#DejaVuSans-62"/>
      <use x="346.830078" xlink:href="#DejaVuSans-69"/>
      <use x="374.613281" xlink:href="#DejaVuSans-6c"/>
      <use x="402.396484" xlink:href="#DejaVuSans-69"/>
      <use x="430.179688" xlink:href="#DejaVuSans-74"/>
      <use x="469.388672" xlink:href="#DejaVuSans-79"/>
      <use x="528.568359" xlink:href="#DejaVuSans-20"/>
      <use x="560.355469" xlink:href="#DejaVuSans-64"/>
      <use x="623.832031" xlink:href="#DejaVuSans-65"/>
      <use x="685.355469" xlink:href="#DejaVuSans-6e"/>
      <use x="748.734375" xlink:href="#DejaVuSans-73"/>
      <use x="800.833984" xlink:href="#DejaVuSans-69"/>
      <use x="828.617188" xlink:href="#DejaVuSans-74"/>
      <use x="867.826172" xlink:href="#DejaVuSans-79"/>
     </g>
    </g>
   </g>
   <g id="line2d_16">
    <path clip-path="url(#p3dd75df862)" d="M 60.013977 273.312 
L 79.512749 228.916908 
L 89.912094 205.785246 
L 98.686541 186.79006 
L 106.486049 170.424632 
L 113.635599 155.935381 
L 120.135189 143.248894 
L 126.3098 131.672376 
L 132.159432 121.170804 
L 137.684084 111.699594 
L 142.883756 103.206882 
L 148.083429 95.144731 
L 152.958121 87.995664 
L 157.507835 81.694858 
L 162.057548 75.765406 
L 166.282282 70.602057 
L 170.507016 65.77745 
L 174.73175 61.299649 
L 178.631504 57.480589 
L 182.531258 53.968853 
L 186.431012 50.769439 
L 190.005787 48.114909 
L 193.580562 45.729826 
L 197.155337 43.617044 
L 200.730112 41.77909 
L 203.979907 40.348568 
L 207.229702 39.148414 
L 210.479497 38.179813 
L 213.729293 37.443724 
L 216.979088 36.940875 
L 220.228883 36.671763 
L 223.478678 36.636654 
L 226.728474 36.835582 
L 229.978269 37.268352 
L 233.228064 37.934535 
L 236.477859 38.833472 
L 239.727655 39.964275 
L 242.97745 41.325825 
L 246.227245 42.916776 
L 249.80202 44.929895 
L 253.376795 47.216273 
L 256.951569 49.773173 
L 260.526344 52.597536 
L 264.426098 55.979721 
L 268.325853 59.671365 
L 272.225607 63.667212 
L 276.450341 68.332722 
L 280.675075 73.340766 
L 284.899809 78.682977 
L 289.449522 84.799588 
L 293.999235 91.281537 
L 298.873928 98.61761 
L 304.073601 106.870707 
L 309.273273 115.545092 
L 314.797925 125.198655 
L 320.647556 135.880751 
L 326.822167 147.633187 
L 333.321758 160.487934 
L 340.471307 175.141455 
L 348.270816 191.660324 
L 357.045263 210.794948 
L 367.444608 234.045066 
L 382.068687 267.358013 
L 384.668523 273.312 
L 384.668523 273.312 
" style="fill:none;stroke:#ff7f0e;stroke-linecap:square;stroke-width:1.5;"/>
   </g>
   <g id="patch_203">
    <path d="M 43.78125 273.312 
L 43.78125 7.2 
" style="fill:none;stroke:#000000;stroke-linecap:square;stroke-linejoin:miter;stroke-width:0.8;"/>
   </g>
   <g id="patch_204">
    <path d="M 400.90125 273.312 
L 400.90125 7.2 
" style="fill:none;stroke:#000000;stroke-linecap:square;stroke-linejoin:miter;stroke-width:0.8;"/>
   </g>
   <g id="patch_205">
    <path d="M 43.78125 273.312 
L 400.90125 273.312 
" style="fill:none;stroke:#000000;stroke-linecap:square;stroke-linejoin:miter;stroke-width:0.8;"/>
   </g>
   <g id="patch_206">
    <path d="M 43.78125 7.2 
L 400.90125 7.2 
" style="fill:none;stroke:#000000;stroke-linecap:square;stroke-linejoin:miter;stroke-width:0.8;"/>
   </g>
  </g>
 </g>
 <defs>
  <clipPath id="p3dd75df862">
   <rect height="266.112" width="357.12" x="43.78125" y="7.2"/>
  </clipPath>
 </defs>
</svg>
